<?xml version="1.0" encoding="UTF-8" standalone="no"?>
<!-- Created with Inkscape (http://www.inkscape.org/) -->

<svg
   width="210mm"
   height="297mm"
   viewBox="0 0 210 297"
   version="1.1"
   id="svg1"
   inkscape:version="1.3 (0e150ed, 2023-07-21)"
   sodipodi:docname="logo-text.svg"
   xmlns:inkscape="http://www.inkscape.org/namespaces/inkscape"
   xmlns:sodipodi="http://sodipodi.sourceforge.net/DTD/sodipodi-0.dtd"
   xmlns="http://www.w3.org/2000/svg"
   xmlns:svg="http://www.w3.org/2000/svg">
  <sodipodi:namedview
     id="namedview1"
     pagecolor="#ffffff"
     bordercolor="#000000"
     borderopacity="0.25"
     inkscape:showpageshadow="2"
     inkscape:pageopacity="0.0"
     inkscape:pagecheckerboard="0"
     inkscape:deskcolor="#d1d1d1"
     inkscape:document-units="mm"
     showguides="true"
     inkscape:zoom="22.160501"
     inkscape:cx="219.87319"
     inkscape:cy="485.61627"
     inkscape:window-width="1792"
     inkscape:window-height="1068"
     inkscape:window-x="0"
     inkscape:window-y="904"
     inkscape:window-maximized="0"
     inkscape:current-layer="layer1">
    <sodipodi:guide
       position="56.456926,170.44455"
       orientation="0,-1"
       id="guide1"
       inkscape:locked="false" />
    <sodipodi:guide
       position="71.511103,166.79477"
       orientation="0,-1"
       id="guide2"
       inkscape:locked="false" />
    <sodipodi:guide
       position="56.900852,170.44455"
       orientation="1,0"
       id="guide3"
       inkscape:locked="false" />
    <sodipodi:guide
       position="56.420026,166.79477"
       orientation="1,0"
       id="guide4"
       inkscape:locked="false" />
    <sodipodi:guide
       position="59.57058,168.49906"
       orientation="1,0"
       id="guide5"
       inkscape:locked="false" />
    <sodipodi:guide
       position="60.026001,170.44455"
       orientation="1,0"
       id="guide6"
       inkscape:locked="false" />
    <sodipodi:guide
       position="56.900851,168.48536"
       orientation="0,-1"
       id="guide7"
       inkscape:locked="false" />
    <sodipodi:guide
       position="56.895252,169.03623"
       orientation="0,-1"
       id="guide8"
       inkscape:locked="false" />
  </sodipodi:namedview>
  <defs
     id="defs1" />
  <g
     inkscape:label="Layer 1"
     inkscape:groupmode="layer"
     id="layer1">
    <path
       d="m 70.906667,130.11078 c -0.0719,-0.0504 -0.13065,-0.10707 -0.13065,-0.12597 0,-0.0189 -0.0269,-0.0906 -0.0597,-0.15936 -0.0554,-0.11592 -0.0868,-0.19624 -0.18722,-0.4785 -0.0211,-0.0592 -0.0622,-0.16293 -0.0915,-0.23056 -0.0293,-0.0676 -0.0844,-0.20596 -0.12248,-0.30741 -0.0381,-0.10144 -0.0952,-0.24129 -0.12693,-0.31077 -0.0318,-0.0695 -0.0577,-0.14348 -0.0577,-0.16443 0,-0.0209 -0.0194,-0.0817 -0.0431,-0.13497 -0.17203,-0.38632 -0.20279,-0.46396 -0.20279,-0.51181 0,-0.0297 -0.0204,-0.0709 -0.0453,-0.0916 -0.0249,-0.0207 -0.0547,-0.0878 -0.0662,-0.14916 -0.0115,-0.0614 -0.0464,-0.15335 -0.0776,-0.20441 -0.0311,-0.0511 -0.0567,-0.11838 -0.0567,-0.14959 -6e-5,-0.0312 -0.0184,-0.0935 -0.0408,-0.13833 -0.17037,-0.34155 -0.17419,-0.35231 -0.13993,-0.39359 0.0448,-0.054 0.42676,-0.0564 0.49398,-0.003 0.0266,0.0211 0.0558,0.073 0.0648,0.11528 0.0217,0.10144 0.10226,0.32343 0.17298,0.47648 0.0312,0.0676 0.0737,0.17138 0.0942,0.23056 0.10595,0.30457 0.12753,0.35993 0.16964,0.43512 0.0251,0.0449 0.0458,0.10712 0.0459,0.13833 1.2e-4,0.0312 0.0277,0.0982 0.0613,0.14896 0.0336,0.0507 0.0612,0.11648 0.0613,0.14613 1.2e-4,0.0297 0.0279,0.10553 0.0617,0.16862 0.0338,0.0631 0.0614,0.13567 0.0614,0.16128 -6e-5,0.0256 0.0264,0.1019 0.0587,0.16953 0.0323,0.0676 0.0903,0.1961 0.12885,0.28549 0.0835,0.19362 0.15146,0.20202 0.18859,0.0233 0.0138,-0.0667 0.0456,-0.14379 0.0705,-0.17133 0.0249,-0.0276 0.0453,-0.0769 0.0453,-0.10959 0,-0.0327 0.0255,-0.10773 0.0568,-0.16666 0.0312,-0.0589 0.0669,-0.14863 0.0792,-0.19935 0.0124,-0.0507 0.0403,-0.11298 0.0621,-0.13834 0.0218,-0.0254 0.0488,-0.0876 0.0601,-0.13833 0.0113,-0.0507 0.0393,-0.13373 0.0623,-0.18445 0.023,-0.0507 0.0709,-0.15598 0.10653,-0.23392 0.0357,-0.0779 0.0649,-0.16094 0.065,-0.18445 9e-5,-0.0235 0.0217,-0.084 0.048,-0.1344 0.0263,-0.0504 0.0825,-0.18183 0.12496,-0.29204 0.17736,-0.4606 0.21886,-0.53746 0.3184,-0.58965 0.0818,-0.0429 0.11736,-0.0454 0.22086,-0.0154 0.10348,0.03 0.12995,0.0549 0.16429,0.15489 0.0225,0.0655 0.0558,0.13399 0.074,0.15216 0.0182,0.0182 0.033,0.0593 0.033,0.0913 0,0.0321 0.0198,0.095 0.0441,0.13987 0.0684,0.12675 0.20187,0.43914 0.20187,0.47261 0,0.0304 0.0219,0.0831 0.16606,0.39865 0.0439,0.0962 0.0799,0.20169 0.0799,0.23448 0,0.0328 0.0204,0.0765 0.0453,0.0972 0.0249,0.0207 0.0543,0.0881 0.0654,0.14978 0.011,0.0617 0.038,0.13294 0.0599,0.1583 0.0219,0.0254 0.0498,0.0876 0.0621,0.13834 0.0122,0.0507 0.0474,0.14063 0.0781,0.19981 0.0307,0.0592 0.0635,0.14563 0.073,0.19213 0.0234,0.11567 0.12296,0.11234 0.18424,-0.006 0.0258,-0.0499 0.047,-0.11559 0.0471,-0.14603 9e-5,-0.0304 0.022,-0.0968 0.0487,-0.14754 0.051,-0.0969 0.22345,-0.52791 0.32594,-0.81463 0.0332,-0.093 0.0732,-0.18222 0.0887,-0.19828 0.0155,-0.0161 0.0283,-0.0496 0.0283,-0.0744 0,-0.0403 0.1113,-0.34843 0.18465,-0.51117 0.0152,-0.0338 0.0721,-0.17906 0.12645,-0.32278 0.0543,-0.14371 0.12059,-0.27914 0.1473,-0.30095 0.0315,-0.0258 0.11876,-0.0365 0.24852,-0.0308 0.1838,0.008 0.20077,0.0148 0.21022,0.0816 0.006,0.04 -0.005,0.0877 -0.023,0.10606 -0.0183,0.0184 -0.0333,0.055 -0.0333,0.0815 0,0.0265 -0.0277,0.0997 -0.0615,0.16281 -0.0338,0.0631 -0.0619,0.13206 -0.0625,0.15325 -4.4e-4,0.0212 -0.0278,0.0939 -0.0604,0.1615 -0.0327,0.0676 -0.0599,0.14098 -0.0604,0.16299 -4.3e-4,0.022 -0.0272,0.0912 -0.0592,0.1537 -0.032,0.0625 -0.0749,0.1621 -0.0955,0.22127 -0.10495,0.30214 -0.12746,0.3599 -0.16959,0.43512 -0.0251,0.0449 -0.0457,0.0987 -0.0457,0.1196 0,0.0209 -0.0266,0.0949 -0.0591,0.16433 -0.0325,0.0695 -0.0895,0.20933 -0.12666,0.31077 -0.0372,0.10145 -0.0919,0.2467 -0.12165,0.32278 -0.0297,0.0761 -0.0842,0.22133 -0.12111,0.32278 -0.0369,0.10145 -0.0872,0.22595 -0.11195,0.27667 -0.0247,0.0507 -0.0559,0.13372 -0.0693,0.18444 -0.0168,0.0636 -0.0639,0.11418 -0.15165,0.16291 -0.12048,0.0669 -0.13227,0.0681 -0.2219,0.0217 -0.0638,-0.033 -0.11935,-0.10293 -0.17049,-0.21474 -0.0417,-0.0912 -0.0758,-0.17553 -0.0758,-0.18745 0,-0.0119 -0.0294,-0.0854 -0.0653,-0.16335 -0.11026,-0.23921 -0.16975,-0.37989 -0.2419,-0.57207 -0.0381,-0.10145 -0.0952,-0.2413 -0.12694,-0.31078 -0.0317,-0.0695 -0.0577,-0.14216 -0.0577,-0.1615 0,-0.0194 -0.0277,-0.0868 -0.0615,-0.14988 -0.0338,-0.0631 -0.0615,-0.13293 -0.0615,-0.15519 0,-0.0222 -0.026,-0.0916 -0.0578,-0.15416 -0.13001,-0.25584 -0.17428,-0.36012 -0.20352,-0.47952 -0.0183,-0.0747 -0.051,-0.12931 -0.0808,-0.13497 -0.0703,-0.0133 -0.14975,0.0756 -0.14975,0.16769 0,0.0426 -0.0277,0.11267 -0.0615,0.15566 -0.0338,0.043 -0.0615,0.10437 -0.0615,0.13642 0,0.0531 -0.0894,0.29131 -0.20173,0.53753 -0.0243,0.0533 -0.0442,0.11279 -0.0442,0.13225 0,0.0195 -0.0265,0.0865 -0.0588,0.14906 -0.0656,0.12698 -0.14417,0.31621 -0.26413,0.63627 -0.16983,0.45315 -0.24899,0.61866 -0.34917,0.7301 -0.057,0.0634 -0.11239,0.11408 -0.1231,0.11262 -0.0107,-0.001 -0.0783,-0.0439 -0.15013,-0.0943 z m 14.91697,-0.01 c -0.36652,-0.0928 -0.45759,-0.12772 -0.6763,-0.25905 -0.20835,-0.12511 -0.58322,-0.48627 -0.61588,-0.59336 -0.0119,-0.0389 -0.0395,-0.0915 -0.0614,-0.11684 -0.0833,-0.0966 -0.1719,-0.42049 -0.18907,-0.69167 -0.0144,-0.22721 -0.005,-0.32612 0.0526,-0.55333 0.0386,-0.15217 0.0957,-0.30966 0.12684,-0.34998 0.0312,-0.0403 0.0567,-0.0858 0.0567,-0.10116 0,-0.0697 0.40851,-0.54794 0.46806,-0.54794 0.0134,0 0.0934,-0.0485 0.17761,-0.10768 0.26043,-0.18305 0.58314,-0.27191 1.13131,-0.31152 0.69992,-0.0506 1.28355,0.12114 1.7905,0.52679 0.10422,0.0834 0.33401,0.45463 0.3572,0.57707 0.0103,0.0546 0.0316,0.12432 0.0473,0.15499 0.0494,0.0965 -0.0251,0.14405 -0.22541,0.14405 -0.19507,0 -0.30364,-0.065 -0.30364,-0.18168 0,-0.13373 -0.37807,-0.50608 -0.57842,-0.56967 -0.0339,-0.0107 -0.0784,-0.0398 -0.0989,-0.0645 -0.0205,-0.0247 -0.0805,-0.0451 -0.13342,-0.0453 -0.0529,-2.4e-4 -0.17223,-0.0208 -0.26522,-0.0457 -0.55919,-0.15009 -1.40103,0.0746 -1.74722,0.46637 -0.0704,0.0796 -0.12797,0.15837 -0.12797,0.17495 0,0.0166 -0.0238,0.0564 -0.0529,0.0886 -0.0524,0.0579 -0.10329,0.20727 -0.16831,0.49377 -0.0284,0.12532 -0.0231,0.19042 0.0353,0.42847 0.0615,0.25066 0.0874,0.30324 0.24204,0.49123 0.22267,0.27067 0.44505,0.41231 0.82,0.52228 0.42573,0.12486 1.12755,0.0605 1.47963,-0.13567 0.13924,-0.0776 0.34092,-0.26748 0.51361,-0.4836 0.0311,-0.0389 0.0801,-0.16256 0.10896,-0.27471 l 0.0524,-0.20392 h 0.21047 c 0.27365,0 0.29606,0.0308 0.21624,0.29688 -0.0815,0.27157 -0.27081,0.58822 -0.47325,0.79144 -0.18564,0.18637 -0.68875,0.46646 -0.83512,0.46493 -0.0438,-4.4e-4 -0.14756,0.0198 -0.23055,0.0449 -0.23305,0.0707 -0.76432,0.0565 -1.10387,-0.0295 z m -29.40361,0.10445 -10e-7,-3.64978 h 0.480827 l -0.0056,1.40832 2.675327,0 c 0.01099,-0.47805 0,-1.40832 0,-1.40832 h 0.455422 l -10e-7,3.64978 H 59.57058 l 0,-1.69059 -2.669728,0 -2.3e-5,1.69059 z m 6.36519,-0.14765 c -0.0187,-0.0349 -0.016,-0.0759 0.008,-0.11809 0.02,-0.0356 0.0585,-0.10388 0.0855,-0.15176 0.0685,-0.12158 0.17883,-0.31972 0.34791,-0.62502 0.0796,-0.14371 0.15799,-0.28204 0.17421,-0.30741 0.0162,-0.0254 0.0499,-0.0905 0.0748,-0.14466 0.0249,-0.0542 0.12149,-0.23047 0.21457,-0.39168 0.0931,-0.16122 0.16922,-0.31185 0.16922,-0.33474 0,-0.0229 0.0273,-0.0663 0.0607,-0.0965 0.0334,-0.0302 0.0686,-0.08 0.0784,-0.11055 0.01,-0.0306 0.0835,-0.17056 0.16407,-0.31104 0.0805,-0.14048 0.1918,-0.34534 0.24727,-0.45523 0.20827,-0.41264 0.23783,-0.45003 0.38928,-0.49244 0.12736,-0.0357 0.14764,-0.0337 0.22185,0.0217 0.0449,0.0335 0.12878,0.14971 0.18636,0.25816 0.0576,0.10844 0.16007,0.30092 0.22777,0.42773 0.0677,0.1268 0.20226,0.38309 0.29904,0.56952 0.0968,0.18644 0.24022,0.45225 0.31878,0.5907 0.0786,0.13844 0.14283,0.26149 0.14283,0.27342 0,0.0119 0.0192,0.0435 0.0427,0.0702 0.0235,0.0267 0.08,0.12462 0.1255,0.21761 0.0456,0.093 0.0975,0.19623 0.11539,0.22943 0.13007,0.2411 0.2083,0.40431 0.2083,0.43457 0,0.0195 0.0215,0.0534 0.0479,0.0752 0.0263,0.0219 0.0676,0.0823 0.0916,0.13442 0.024,0.0521 0.0605,0.11772 0.081,0.14589 0.0838,0.11523 -0.10757,0.16317 -0.48579,0.12167 -0.0191,-0.002 -0.086,-0.10411 -0.14863,-0.22669 -0.24918,-0.48771 -0.37687,-0.70938 -0.43176,-0.74952 -0.0457,-0.0334 -0.2491,-0.042 -0.98672,-0.042 -0.51107,0 -0.95193,0.009 -0.97969,0.0194 -0.0278,0.0106 -0.0826,0.0833 -0.12178,0.16139 -0.14831,0.29546 -0.41462,0.78138 -0.44214,0.80677 -0.0114,0.0106 -0.1281,0.0268 -0.25924,0.0361 -0.20563,0.0145 -0.24235,0.01 -0.26699,-0.0365 z m 2.73993,-1.5032 c 0.032,-0.032 0.0295,-0.055 -0.0134,-0.12285 -0.029,-0.0459 -0.10766,-0.19739 -0.17472,-0.33665 -0.067,-0.13926 -0.1764,-0.34676 -0.243,-0.46111 -0.0666,-0.11435 -0.1263,-0.23558 -0.13267,-0.26939 -0.007,-0.0361 -0.0359,-0.0615 -0.0706,-0.0615 -0.0732,0 -0.19798,0.19223 -0.47147,0.72643 -0.0724,0.1415 -0.15789,0.29878 -0.18988,0.3495 -0.10082,0.15985 -0.0838,0.19538 0.0987,0.20591 0.4449,0.0257 1.15911,0.008 1.19702,-0.0304 z m 12.38331,1.51588 c -0.0213,-0.0257 -0.0292,-0.61513 -0.0239,-1.78712 l 0.008,-1.74877 0.21214,-0.009 c 0.11668,-0.005 0.22518,0.004 0.24111,0.0198 0.0164,0.0164 0.0311,0.38573 0.0338,0.85415 0.005,0.77214 0.008,0.82588 0.0609,0.83598 0.0308,0.006 0.0793,-0.0102 0.10765,-0.0359 0.0283,-0.0257 0.0861,-0.0615 0.12836,-0.0797 0.0422,-0.0182 0.1598,-0.0956 0.26124,-0.17213 0.10145,-0.0765 0.21903,-0.15604 0.2613,-0.17673 0.0423,-0.0207 0.11835,-0.0642 0.16907,-0.0968 0.20428,-0.13105 0.7741,-0.50144 0.85737,-0.55731 0.0489,-0.0328 0.11007,-0.0734 0.13601,-0.0903 0.0259,-0.0169 0.19903,-0.13081 0.38466,-0.2531 0.18564,-0.1223 0.38035,-0.23022 0.43271,-0.23981 0.16909,-0.031 0.73461,-0.002 0.74794,0.0379 0.007,0.0202 -0.0475,0.067 -0.12047,0.10403 -0.073,0.037 -0.18799,0.10561 -0.25562,0.15248 -0.0676,0.0469 -0.18396,0.12457 -0.25851,0.17264 -0.17373,0.11202 -0.24008,0.15707 -0.41177,0.27954 -0.077,0.0549 -0.14681,0.0999 -0.15506,0.0999 -0.008,0 -0.16525,0.10152 -0.34886,0.22561 -0.18361,0.12409 -0.36874,0.24513 -0.41138,0.26898 -0.20998,0.11744 -0.27385,0.17057 -0.27387,0.22781 -1e-5,0.0411 0.10444,0.1451 0.3149,0.31355 0.17321,0.13864 0.37717,0.30656 0.45325,0.37315 0.17387,0.15217 1.02787,0.86084 1.28406,1.06553 0.27503,0.21976 0.25502,0.24862 -0.16257,0.23455 l -0.3376,-0.0114 -0.18004,-0.14233 c -0.099,-0.0783 -0.30247,-0.24607 -0.45211,-0.37288 -0.14962,-0.1268 -0.43952,-0.36889 -0.64421,-0.53796 -0.20469,-0.16908 -0.45764,-0.38003 -0.56212,-0.4688 -0.19866,-0.16879 -0.26502,-0.19205 -0.32874,-0.11528 -0.021,0.0254 -0.0634,0.0461 -0.0942,0.0461 -0.0308,0 -0.0643,0.0135 -0.0745,0.03 -0.0102,0.0165 -0.0939,0.08 -0.18608,0.14121 -0.0922,0.0612 -0.20733,0.14837 -0.25596,0.1938 l -0.0884,0.0826 0.002,0.55925 c 8.7e-4,0.3076 -0.007,0.56869 -0.019,0.58021 -0.0397,0.0397 -0.41809,0.037 -0.4515,-0.003 z m 13.40858,-0.003 c -0.055,-0.0386 -0.0574,-0.11334 -0.0549,-1.75588 0.001,-0.94359 0.0138,-1.73291 0.0275,-1.75405 0.0346,-0.0535 0.40245,-0.0515 0.44724,0.003 0.0219,0.0264 0.0368,0.2848 0.0422,0.7301 l 0.008,0.68924 1.28923,0.008 c 0.72944,0.005 1.30118,-0.004 1.31674,-0.0195 0.0151,-0.0151 0.0266,-0.33624 0.0255,-0.71359 -0.001,-0.5119 0.008,-0.6922 0.0358,-0.71015 0.0553,-0.0351 0.35479,-0.0303 0.42416,0.007 0.0577,0.0309 0.0594,0.0824 0.059,1.74453 -3.1e-4,0.99175 -0.0124,1.73159 -0.0288,1.75754 -0.0211,0.0334 -0.0811,0.0429 -0.23503,0.0372 -0.11367,-0.004 -0.21887,-0.0152 -0.23379,-0.0244 -0.0149,-0.009 -0.0252,-0.35592 -0.0228,-0.77045 0.002,-0.41702 -0.008,-0.76616 -0.0236,-0.7816 -0.0161,-0.0161 -0.57384,-0.0245 -1.31714,-0.0199 l -1.28924,0.008 -0.008,0.76603 c -0.005,0.47084 -0.0205,0.78081 -0.0401,0.8044 -0.0421,0.0507 -0.34767,0.0472 -0.42201,-0.005 z m 6.58643,-0.004 c -0.0344,-0.0344 -0.0422,-0.34961 -0.0432,-1.75202 -8.8e-4,-1.21622 0.009,-1.72202 0.0331,-1.75146 0.0438,-0.0527 0.39929,-0.0562 0.45104,-0.005 0.0504,0.0504 0.0536,3.48435 0.004,3.51543 -0.0671,0.0414 -0.4009,0.0358 -0.4442,-0.007 z m 3.364553,0.002 c -0.0168,-0.0202 -0.0251,-0.74657 -0.0205,-1.78296 l 0.008,-1.74877 h 0.23055 0.23055 l 0.0154,1.53705 0.0154,1.53703 1.24227,0.008 c 0.85465,0.006 1.25512,0.0187 1.28343,0.0422 0.048,0.0398 0.0576,0.38174 0.0115,0.41021 -0.0586,0.0362 -2.98645,0.0335 -3.01656,-0.003 z m 6.04344,0.0188 -0.24592,-0.0154 -0.008,-1.73339 c -0.006,-1.31524 8.7e-4,-1.74415 0.029,-1.77795 0.0314,-0.0378 0.19713,-0.0425 1.09924,-0.0308 0.97124,0.0126 1.08334,0.0195 1.30819,0.0809 0.3935,0.10743 0.63331,0.24827 0.91387,0.53668 0.41542,0.42705 0.52103,1.45209 0.20631,2.00237 -0.25577,0.44718 -0.61907,0.68953 -1.30462,0.87029 -0.21199,0.0559 -0.34988,0.0661 -0.99908,0.0737 -0.41423,0.005 -0.86382,0.002 -0.99908,-0.006 z m 2.0289,-0.56565 c 0.30356,-0.10952 0.42136,-0.17526 0.59686,-0.33305 0.18869,-0.16964 0.29091,-0.35625 0.3564,-0.65062 0.0517,-0.2322 0.049,-0.26959 -0.0485,-0.67829 -0.0347,-0.14568 -0.20089,-0.40736 -0.32424,-0.51073 -0.10812,-0.0906 -0.30319,-0.18986 -0.51671,-0.26291 -0.20234,-0.0692 -0.25212,-0.0728 -1.00494,-0.0728 -0.4847,0 -0.7993,0.0117 -0.81071,0.0301 -0.0103,0.0166 -0.0188,0.58486 -0.0189,1.26283 -3.5e-4,0.96403 0.008,1.24313 0.0395,1.28064 0.0348,0.042 0.13232,0.0457 0.77793,0.0302 0.68757,-0.0166 0.75286,-0.0231 0.95331,-0.0954 z m 36.22804,0.56565 -0.2613,-0.0154 -0.0154,-1.73685 c -0.01,-1.08304 -0.004,-1.75251 0.0141,-1.77843 0.0473,-0.0668 2.13277,-0.0338 2.31841,0.0366 0.074,0.0281 0.16221,0.0511 0.19604,0.0511 0.10727,0 0.50853,0.2155 0.66766,0.35858 0.15235,0.13697 0.33902,0.3827 0.33902,0.44628 0,0.0183 0.0258,0.0764 0.0574,0.12911 0.0315,0.0527 0.0821,0.23055 0.11234,0.39518 0.0463,0.25204 0.0495,0.33463 0.0203,0.5226 -0.0565,0.36376 -0.0954,0.52303 -0.14037,0.57443 -0.0233,0.0266 -0.0521,0.0802 -0.064,0.1191 -0.0256,0.0841 -0.40803,0.47372 -0.53019,0.54026 -0.23233,0.12655 -0.43317,0.20691 -0.69254,0.2771 -0.26016,0.0704 -0.34817,0.0778 -1.02245,0.0864 -0.40577,0.005 -0.85536,0.003 -0.99907,-0.006 z m 1.63089,-0.48958 c 0.24769,-0.0222 0.33191,-0.0449 0.53796,-0.14547 0.35764,-0.1745 0.45308,-0.24798 0.59068,-0.45473 0.13756,-0.20668 0.19158,-0.40649 0.19158,-0.70856 0,-0.60283 -0.26889,-0.98587 -0.83526,-1.18981 -0.18097,-0.0652 -0.25215,-0.0707 -1.01917,-0.0798 -0.56607,-0.007 -0.83735,8.7e-4 -0.86521,0.0239 -0.0324,0.0269 -0.0403,0.28238 -0.0394,1.26991 8.7e-4,0.75868 0.0128,1.25107 0.0313,1.27466 0.0358,0.0456 0.93736,0.052 1.40757,0.01 z m 4.61076,0.47855 c -0.0488,-0.0488 -0.044,-3.46909 0.005,-3.51802 0.0364,-0.0364 0.34961,-0.0518 0.42939,-0.0212 0.0335,0.0129 0.0398,0.33335 0.0347,1.77124 -0.004,0.96553 -0.0149,1.76426 -0.0256,1.77494 -0.0329,0.0329 -0.40945,0.027 -0.44341,-0.007 z m 5.07618,0.004 c -0.0253,-0.0253 -0.036,-0.24122 -0.036,-0.73005 v -0.69409 l -0.19981,-0.19804 c -0.1099,-0.10892 -0.19982,-0.21324 -0.19982,-0.23181 0,-0.0186 -0.0311,-0.062 -0.0692,-0.0966 -0.095,-0.0863 -0.97153,-0.98837 -1.24613,-1.2825 -0.2788,-0.29862 -0.26959,-0.32579 0.11038,-0.32579 h 0.26312 l 0.23389,0.23824 c 0.12864,0.13103 0.39933,0.41779 0.60154,0.63723 0.61006,0.66206 0.70225,0.75379 0.75742,0.75379 0.0291,0 0.0648,-0.0212 0.0793,-0.0471 0.0276,-0.0493 0.664,-0.72508 1.19225,-1.26601 l 0.30873,-0.31612 0.25998,4.4e-4 c 0.14299,2.3e-4 0.28012,0.0132 0.30472,0.0288 0.0467,0.0295 0.0608,0.0128 -0.49477,0.58832 -0.10754,0.1114 -0.24935,0.26357 -0.31513,0.33814 -0.0658,0.0746 -0.31017,0.3372 -0.54307,0.58359 -0.2329,0.2464 -0.45839,0.48952 -0.50109,0.54027 l -0.0776,0.0923 0.004,0.68148 c 0.002,0.37482 -0.006,0.69079 -0.0171,0.70216 -0.0381,0.038 -0.3777,0.0408 -0.41513,0.004 z m -44.91629,-0.12951 c -0.0195,-0.0236 -0.0313,-0.1096 -0.0261,-0.19122 l 0.009,-0.14841 h 15.96985 15.96985 l 0.009,0.14841 c 0.005,0.0835 -0.007,0.16765 -0.027,0.19239 -0.0543,0.0654 -31.85122,0.0643 -31.90552,-0.001 z"
       style="fill:#000000;stroke-width:0.0307407"
       id="path1"
       sodipodi:nodetypes="csccsscscssscccssccccscsscssccsccssscsscssssscscsscscsccsscssccccccsscccsccssccscssssscscssscscssssscssccccsccsscssssscssscscccsccsssssccscsscccccccccccccccccccscssssccscsssscssccscsccssscccccccscscscscccccccccccssscsssscccssssssssssccssscsssscccccccccccccccccsccccsccscccsccccccccccccccsccccccsssssccccsccsssscccccccccsssscssscsscccccssscccscccsccccccscssssscssssscscsssccccccccccccccc" />
  </g>
</svg>
