<svg width="270.267" height="40.107" viewBox="0 0 71.508 10.612" xmlns="http://www.w3.org/2000/svg">
    <path d="M87.645 152.87c-.019-.162-.019-.311 0-.33.042-.042.115-.681.108-.95-.002-.103.035-.211.083-.241.06-.036.055-.093-.011-.174-.076-.091-.075-.12.005-.12.057 0 .083-.053.058-.12-.07-.18.088-.668.285-.88.14-.15.207-.169.341-.097.242.13.306.051.292-.359-.007-.2.008-.402.033-.448.064-.118.105-.312.104-.487 0-.081.04-.148.09-.148.057 0 .073-.126.045-.339-.025-.186-.011-.338.03-.338.113 0 .034-.54-.082-.562-.054-.01-.061 0-.016.023.047.024.012.165-.081.332a2.09 2.09 0 0 0-.205.523c-.023.128-.081.246-.129.261-.048.016-.087.12-.087.23 0 .109-.08.255-.178.324a.51.51 0 0 0-.192.374.77.77 0 0 1-.125.384c-.061.074-.087.175-.057.223.03.05-.01.089-.087.089-.087 0-.123.046-.094.121.026.067.02.134-.012.149-.125.056-.362.582-.305.674.038.06.023.075-.037.038-.085-.053-.148.225-.108.478.006.035-.028.064-.075.064-.046 0-.084.076-.084.17 0 .092-.034.169-.075.169-.084 0-.19.286-.209.567-.016.24-.196.426-.306.316-.045-.045-.097-.371-.114-.724-.018-.352-.055-.679-.084-.725-.028-.046-.061-.224-.073-.394-.012-.187-.064-.31-.13-.31-.103 0-.148.156-.116.402.007.058-.036.106-.096.106-.066 0-.116.12-.125.302-.009.166-.053.347-.098.402-.046.055-.116.23-.157.389l-.075.288-.335-.342c-.784-.8-1.225-1.288-1.225-1.357 0-.04-.133-.218-.296-.396-.163-.178-.296-.357-.296-.398 0-.04-.064-.074-.141-.074-.078 0-.118-.023-.09-.051.028-.028-.045-.152-.162-.275-.225-.237-.403-.599-.33-.672.024-.024.17.09.325.255.155.164.365.325.467.357.101.033.185.114.185.18 0 .067.038.122.084.122.187 0 .216.018.311.196.055.101.122.174.15.162.055-.025.177.068.551.425.135.128.328.242.43.254.166.019.19-.028.234-.445.027-.256.052-.586.055-.733.004-.213.028-.25.118-.175.062.052.095.183.074.293-.02.11 0 .186.045.171.122-.04.285-.577.262-.864-.012-.137.01-.29.05-.339.038-.048.09-.203.115-.342.024-.14.068-.357.096-.482.028-.125.012-.251-.035-.28-.126-.078-.103-.297.031-.297.08 0 .119-.118.124-.384.005-.211.028-.417.053-.457.025-.04-.015-.095-.089-.124-.182-.07-.176-.074-.168.14.006.17-.035.19-.375.193-.442.003-.608-.036-.55-.129.022-.036-.001-.185-.052-.331-.07-.2-.067-.297.011-.391.073-.087.075-.125.01-.125-.053 0-.096-.06-.096-.132 0-.163-.447-.115-.664.07a1.11 1.11 0 0 1-.288.173c-.082.029-.149.092-.149.14 0 .048-.095.087-.211.087-.117 0-.212-.028-.212-.063s-.115-.129-.254-.208c-.203-.115-.254-.12-.254-.027 0 .064.067.184.148.265.082.082.148.173.148.203 0 .03.127.17.28.311.466.425.359 1.041-.185 1.073-.122.007-.221.035-.221.062 0 .027-.048.054-.106.06-.736.078-.86.14-.886.44l-.056.72c-.02.28-.063.57-.093.646-.03.076-.069.4-.086.72-.017.32-.064.715-.104.878l-.074.297-.615-.014c-.338-.008-.68-.042-.758-.076-.08-.034-.406-.074-.726-.089-.32-.015-.598-.042-.617-.06-.07-.072.432-.333.64-.333.12 0 .26-.057.31-.127.052-.07.243-.152.426-.182.212-.034.331-.099.331-.18 0-.068.02-.144.043-.167.023-.023.093-.132.154-.242.093-.165.093-.19 0-.142-.061.032-.048.005.03-.06.22-.18.034-.363-.332-.328-.059.006-.097.054-.085.108.012.054-.145.148-.348.21-.203.06-.422.154-.487.208-.065.053-.118.073-.118.043 0-.082-.536.21-.635.345-.046.064-.208.124-.358.135-.151.01-.293.067-.315.125-.023.058-.118.106-.213.106s-.172.038-.172.085c0 .046-.054.084-.12.084-.067 0-.183.061-.257.136-.074.074-.191.113-.26.087-.069-.026-.125-.008-.125.04 0 .05.143.082.318.074.174-.008.362-.01.416-.006.114.01.62.496.62.595 0 .036-.248.07-.553.075-.304.005-.584.03-.622.053-.038.023-.294-.167-.569-.423-.604-.563-.545-.504-.962-.96l-.34-.374-.195.288c-.107.16-.25.29-.318.29-.072 0-.124.082-.125.198a.429.429 0 0 1-.148.305c-.08.06-.147.149-.147.2 0 .248-.696.698-.805.521-.025-.04-.253-.167-.509-.284-.255-.116-.464-.243-.464-.281 0-.039.155-.137.343-.218.322-.14.389-.315.12-.315-.33 0-.42-.886-.267-2.605.034-.377.015-.46-.121-.533-.123-.066-.173-.056-.21.04-.046.118-.297.247-.5.257-.046.002-.085.062-.086.132-.001.076-.064.116-.159.1-.133-.024-.148.01-.1.21.03.132.13.302.22.378.16.136.16.144-.016.508-.097.203-.201.389-.23.412-.03.023-.104.195-.166.381-.156.464-.434 1.047-.528 1.105-.043.027-.078.113-.078.192 0 .08-.104.257-.232.395-.192.207-.237.225-.26.105a.191.191 0 0 0-.182-.146.235.235 0 0 1-.206-.136c-.029-.074-.106-.115-.172-.09-.065.026-.201-.025-.301-.112-.159-.137-.175-.212-.124-.566.032-.225.105-.465.16-.535.057-.07.15-.29.206-.487.1-.354.38-.537.29-.19-.032.117-.003.169.092.169.075 0 .137-.058.137-.13 0-.07.071-.333.16-.582.09-.26.13-.5.09-.564-.041-.067-.007-.188.087-.307.086-.11.135-.271.11-.366-.024-.092-.004-.168.043-.168.048 0 .075-.067.06-.148a2.63 2.63 0 0 1-.036-.329c-.01-.274-.334-.325-.432-.068-.085.224-.336.202-.336-.03 0-.151-.154-.665-.265-.884a.852.852 0 0 1-.074-.323c0-.097-.04-.25-.088-.34-.06-.113-.06-.164 0-.164.14 0 .217.038.197.096-.01.03.098.077.239.105.14.028.235.085.21.126-.025.04.124.182.333.314.208.132.38.29.38.35s.043.11.096.11c.053 0 .144.065.203.145.087.12.082.169-.033.276-.144.133-.188.447-.077.558.034.035.022.113-.028.172-.05.06-.078.194-.063.298.036.241.24.317.24.089 0-.351.322-.938.546-.994.119-.03.216-.09.216-.135 0-.044.04-.056.088-.026.049.03.144.01.212-.048.093-.077.123-.078.123-.002 0 .055.032.08.071.056.04-.024.058-.169.04-.322a14.144 14.144 0 0 1-.098-1.094c-.01-.23-.069-.345-.235-.454-.122-.08-.2-.11-.175-.068.026.042-.082.218-.24.39-.169.185-.268.367-.24.44.031.08-.003.126-.093.126-.077 0-.117-.038-.088-.084.029-.047.021-.085-.016-.086-.038 0-.16-.134-.272-.298-.111-.164-.22-.28-.24-.26-.054.055.161.661.291.82.06.073.108.187.107.254-.002.08-.056.057-.162-.07-.087-.105-.202-.191-.254-.191-.052 0-.169-.171-.259-.381s-.204-.381-.254-.381c-.05 0-.083-.086-.074-.19.043-.506-.114-.67-.264-.276-.045.117-.12.212-.166.212-.047 0-.216.142-.376.316l-.29.317-.06-.318c-.04-.218-.023-.36.057-.456.063-.076.109-.162.102-.19-.008-.027.04-.179.105-.336.066-.157.12-.331.12-.388 0-.056.028-.13.063-.164.035-.035.103-.22.15-.41.102-.403.214-.471.427-.259.153.153.18.165.423.184.073.006.112.042.089.081-.054.087.555.658.776.728.089.028.211.144.272.259.061.114.144.187.183.162.04-.024.072.006.072.068 0 .158.315.344.387.228.03-.05.015-.131-.035-.181-.058-.058-.062-.143-.011-.238.055-.103.042-.178-.043-.248-.095-.08-.1-.125-.02-.212.156-.168.22-.079.282.395.035.258.12.485.215.565.086.074.156.202.156.285 0 .083.035.15.077.15.042 0 .058.073.035.16-.055.213.095.296.233.13.09-.109.09-.145 0-.2-.067-.043-.077-.088-.024-.12.05-.031.06-.167.024-.329-.036-.16-.01-.536.062-.899.104-.528.105-.634.006-.697-.096-.061-.094-.076.01-.085a1.3 1.3 0 0 1 .235.003c.06.008.167-.045.24-.117a.553.553 0 0 1 .341-.131c.119 0 .188-.037.158-.085-.028-.046-.021-.087.017-.09.037-.005.143-.021.235-.038.17-.032.408.105.349.201-.019.03-.007.311.026.626.033.314.029.571-.008.571-.038 0-.068.042-.068.093 0 .05-.327.417-.725.814-.483.48-.709.764-.676.85.044.113.068.112.205-.012.176-.16.688-.329.688-.228 0 .088-.262.308-.445.373-.125.044-.22.312-.111.312.217 0 1.316-.29 1.461-.384a.754.754 0 0 1 .32-.124c.07 0 .13-.039.13-.085 0-.047.072-.085.16-.085.29 0 .114.316-.208.377a1.39 1.39 0 0 0-.534.262c-.136.114-.284.208-.33.208-.07 0-.935.395-1.386.634a.236.236 0 0 0-.127.254c.091.493.168.72.243.72.045 0 .061.057.035.126-.029.074.02.162.116.214a.292.292 0 0 1 .15.28c-.019.22.336 1.145.505 1.317.146.149.215.075.247-.266.043-.443.077-.58.16-.64.044-.031.085-.21.092-.396.02-.544.067-.804.145-.804.04 0 .05-.057.023-.127-.026-.07-.011-.127.034-.127.151 0 .083-.149-.089-.194-.112-.03-.2.01-.257.117-.047.089-.138.162-.2.162-.064 0-.201.069-.306.154-.159.129-.174.182-.094.332.053.099.114.322.136.496.023.175.072.34.11.366.097.07.078.595-.023.62-.046.012-.09-.112-.096-.275-.006-.163-.09-.474-.184-.69-.095-.218-.15-.418-.123-.445.028-.028.006-.05-.048-.05-.055 0-.099-.069-.099-.153a.412.412 0 0 0-.102-.254c-.055-.055-.077-.101-.047-.101s.001-.102-.063-.227c-.128-.246-.1-.366.086-.366.065 0 .156-.067.204-.148.048-.082.087-.101.089-.042.003.129.934.15.934.02 0-.046.076-.084.169-.084.093 0 .17-.052.17-.117 0-.064.114-.164.253-.222.14-.057.254-.157.254-.221 0-.065.032-.117.072-.117.068 0 .301-.188 1.062-.856.191-.168.43-.348.53-.4.171-.09.176-.084.084.115-.053.115-.154.228-.224.251-.07.023-.181.165-.247.317-.067.152-.19.338-.275.413-.177.157-.215.315-.041.17.062-.051.137-.07.167-.04.03.03.078-.009.107-.085.067-.174.278-.182.343-.013.027.07.083.106.125.08.041-.026.075-.01.075.033 0 .044.09.097.2.118.154.03.197.002.19-.12a.33.33 0 0 0-.134-.236c-.106-.066-.096-.124.07-.399a3.17 3.17 0 0 0 .24-.47c.026-.082.08-.148.122-.148.117 0 .087-.253-.031-.26a2.617 2.617 0 0 1-.254-.035c-.082-.016-.149.003-.149.04 0 .083-.166.067-.322-.03-.06-.039-.213-.04-.339-.006-.125.036-.266.054-.312.041a4.054 4.054 0 0 0-.501-.035c-.24-.007-.43-.055-.45-.114-.037-.11.536-.402.726-.37.071.011.09-.022.05-.087-.045-.072-.022-.088.073-.051.076.029.16.018.186-.025.027-.042.1-.057.164-.033.063.025.14.004.171-.046s.178-.09.327-.09c.148 0 .373-.055.498-.12.221-.116.235-.11.418.19.103.171.201.385.217.475.04.219.059.233.361.256.144.012.284.044.313.073.028.028.113.02.188-.019a.881.881 0 0 1 .37-.058c.271.015.277-.006.1-.36-.073-.146-.112-.299-.086-.34.025-.04-.03-.143-.122-.226-.092-.083-.167-.2-.167-.26 0-.235-.135-.177-.154.066-.01.142-.071.332-.134.421-.108.155-.118.156-.18.012-.037-.084-.054-.19-.038-.237.016-.047.051-.328.077-.626.054-.61.217-.813.477-.597.081.067.215.11.297.097.09-.015.17.044.204.15.03.096.092.152.135.125.044-.027.14.012.216.087.189.19.333.116.3-.154-.014-.124-.007-.225.018-.225.107 0 .475.203.475.262 0 .036.086.092.19.125a.893.893 0 0 1 .338.23c.168.192.536.399.71.399.064 0 .117.063.117.141 0 .078.023.118.05.09.064-.063.664.244.801.41a.36.36 0 0 0 .24.121c.075 0 .247.116.381.259.135.142.295.239.358.215.062-.024.155.022.206.101.08.125.087.119.052-.046-.022-.105-.008-.19.03-.19.092 0 .053-.379-.052-.525-.123-.168-.098-1.19.03-1.232.058-.02.105.012.105.069 0 .057.165.26.367.451.202.191.464.5.581.686.118.187.41.547.65.801.239.255.434.529.434.61 0 .175.137.277.211.157.03-.047.111-.086.181-.086.148 0 .37-.2.37-.333 0-.05-.055-.09-.124-.09-.203 0-.312-.294-.208-.566.05-.132.092-.258.095-.281a1.07 1.07 0 0 1 .187-.415.59.59 0 0 0 .103-.275c.021-.31.033-.335.13-.276.058.036.075.024.041-.03-.03-.05.002-.15.073-.22a.896.896 0 0 0 .18-.388c.03-.142.088-.259.132-.259.043 0 .058-.034.032-.076-.09-.145.217-.175.422-.04.146.095.207.105.207.032 0-.064.056-.081.149-.044.246.098.556.16.836.165.352.007.372.307.03.458-.129.057-.253.173-.275.258-.022.085-.153.205-.29.266a.784.784 0 0 0-.352.336.845.845 0 0 1-.328.346c-.126.066-.42.3-.652.52-.33.314-.4.425-.321.504.08.08.154.052.34-.126.13-.125.275-.228.321-.228.046 0 .311-.21.588-.466.278-.256.62-.52.76-.587.141-.067.402-.267.579-.445.3-.3.33-.312.434-.17.086.118.09.221.017.465-.051.173-.126.337-.166.365-.04.028-.08.228-.088.444-.008.217-.04.394-.07.394-.052 0-.213.592-.266.974a.805.805 0 0 1-.076.254c-.03.047-.08.231-.114.41-.034.177-.107.34-.162.362-.058.022-.086.14-.067.275.021.142-.017.29-.095.368-.072.072-.109.153-.082.18.027.026.02.117-.017.2-.074.17-.067.143-.204.807-.056.267-.137.507-.18.534-.127.078-.091.293.048.293.07 0 .127-.057.127-.126 0-.116.133-.314.402-.598a.396.396 0 0 0 .106-.225c0-.063.104-.214.233-.335.128-.122.282-.282.342-.358.175-.22.27-.16.286.181.023.517.03.567.102.682.1.163-.128.855-.3.91a.356.356 0 0 0-.199.212c-.029.09-.088.165-.131.165-.044 0-.08.042-.08.093 0 .052-.095.169-.211.26-.116.092-.212.2-.212.241 0 .04-.257.333-.57.65-.315.317-.561.607-.549.646.013.038-.016.045-.064.015-.049-.03-.114.016-.146.1-.078.205-.246.37-.312.305-.028-.03-.053.02-.055.11-.001.089-.092.227-.202.307-.2.145-.2.144-.235-.15zm-.81-1.484c-.04-.487-.073-.626-.152-.626-.068 0-.081.22-.049.79.007.118.054.183.118.161.063-.022.096-.152.082-.325zm.027-.846c.032-.051-.004-.155-.08-.23-.125-.126-.136-.119-.136.093 0 .234.113.305.216.137zm-10.124-.121c-.059-.071-.124-.112-.146-.09-.059.058.06.219.163.219.056 0 .05-.049-.017-.13zm10.84-.215c0-.044-.058-.08-.128-.08-.13 0-.168.1-.073.196.068.067.2-.01.2-.116zm1.469-.037c-.027-.07-.083-.127-.124-.127-.042 0-.076.057-.076.127s.056.127.124.127c.076 0 .106-.05.076-.127zm-11.969-.042c0-.047-.016-.085-.037-.085-.02 0-.06.038-.09.085-.028.046-.012.084.038.084s.09-.038.09-.084zm.199-.046c-.028-.072-.068-.113-.09-.09-.023.022-.016.08.015.13.083.135.132.109.075-.04zm-1.045-.043c0-.033.096-.06.214-.06a.654.654 0 0 0 .378-.147c.09-.082.217-.128.283-.102.066.025.153.015.194-.022.04-.037.35-.152.688-.255.337-.102.613-.215.613-.25s.048-.065.106-.066a1.14 1.14 0 0 0 .19-.025c.196-.048.297.01.297.169 0 .093.054.17.12.17s.14.047.163.105c.023.058.045-.037.05-.211.005-.283-.017-.318-.203-.318-.216 0-.39-.217-.323-.403.023-.065-.063-.127-.223-.159-.144-.028-.261-.082-.261-.119 0-.037-.137-.152-.305-.256-.246-.151-.319-.166-.376-.074-.038.063-.052.142-.031.177.022.035-.03.1-.115.146-.108.058-.15.172-.143.385.005.167-.021.303-.059.303-.038 0-.093.097-.123.215-.046.184-.091.21-.307.176a.956.956 0 0 0-.461.055c-.166.075-.225.07-.286-.027-.048-.075-.078-.084-.079-.022 0 .055-.077.124-.17.153-.156.05-.24.368-.128.48.065.064.297.05.297-.017zm-4.623-.59c.051 0 .037-.037-.031-.08a.189.189 0 0 0-.233.012c-.083.069-.109.047-.109-.09 0-.098-.038-.18-.084-.18-.047 0-.085.17-.085.378v.377l.224-.208c.123-.114.266-.208.318-.209zm15.545.092c0-.05.04-.09.088-.09.049 0 .082-.048.075-.107-.03-.224.01-.325.104-.267.058.036.075.024.04-.031a.106.106 0 0 1 .031-.146c.049-.03.066-.09.039-.133-.027-.044.01-.103.083-.13.073-.029.132-.125.132-.216 0-.09.094-.257.208-.372.115-.114.162-.209.106-.21-.056-.001-.031-.056.055-.121.086-.066.134-.156.106-.2-.027-.045.04-.14.15-.212.199-.13.344-.532.22-.609-.066-.04-.205.205-.18.32.007.034-.044.063-.114.063s-.127.038-.127.084c0 .138-.232.097-.288-.05-.03-.078-.107-.116-.179-.088-.07.027-.126.008-.126-.041 0-.113-.346-.407-.484-.41-.063-.002-.105.121-.107.314-.006.572-.012.61-.092.66-.048.03-.045.114.01.216.05.093.061.252.026.355a.63.63 0 0 0-.04.27c.064.232.067.644.004.683-.04.024-.052.096-.027.16.024.064.003.141-.048.172-.05.032-.063.102-.028.157a.614.614 0 0 1 .076.164l.022.111c.017.08.265-.197.265-.296zm-.44-.266c-.016-.05-.066-.091-.11-.091-.045 0-.095.04-.111.09-.017.05.033.092.11.092.078 0 .128-.041.111-.091zm-5.416-.368c.015-.135.079-.325.14-.423.063-.097.127-.272.142-.388a.687.687 0 0 1 .137-.327c.064-.068.085-.188.05-.296a1.243 1.243 0 0 1-.058-.309c0-.23-.164-.24-.367-.021-.11.118-.2.248-.2.288 0 .04-.056.072-.124.072-.076 0-.105.05-.076.127.031.08 0 .127-.084.127-.157 0-.36.336-.25.413.04.029.072.11.068.18-.004.07.076.24.177.38.1.14.165.306.142.369-.027.074.013.103.117.084.102-.02.167-.117.186-.276zm-10.104-.134c.029-.047.012-.085-.037-.085-.05 0-.09.038-.09.085 0 .047.017.085.037.085.021 0 .061-.038.09-.085zm5.679-.518c.025-.041.12-.075.21-.075.11 0 .165-.058.165-.174 0-.096-.034-.153-.076-.128-.12.074-.187-.201-.092-.377.074-.14.046-.167-.222-.217-.168-.032-.33-.023-.36.02-.03.042-.14.071-.245.065-.105-.007-.19.018-.19.055 0 .037-.105.08-.233.094-.454.053-.242.393.423.678.081.035.148.098.148.14 0 .092.408.022.472-.081zm2.267-.61a3.628 3.628 0 0 0-.2-.503.557.557 0 0 1-.035-.355.507.507 0 0 0-.083-.399.828.828 0 0 1-.14-.364c-.007-.17-.007-.171-.074-.002a.469.469 0 0 0-.027.275c.022.058.001.106-.046.106-.097 0-.271.45-.271.7 0 .17.531.739.688.739.046 0 .058.042.026.094s-.007.126.056.165c.186.115.23-.076.106-.456zm1.131-.288c-.02-.106-.008-.193.026-.193.035 0 .108-.176.162-.39.098-.39.279-.663.375-.567.028.027.108.003.178-.056.07-.058.188-.083.26-.055.077.029.111.015.081-.033-.056-.091.03-.109.427-.088.141.007.363-.027.493-.076l.236-.09-.177-.248c-.199-.279-.513-.316-.578-.068-.033.126-.098.145-.347.106-.169-.027-.318-.081-.332-.121-.014-.04-.154-.043-.31-.008-.158.035-.318.034-.357-.003-.038-.037-.241-.088-.45-.112a8.683 8.683 0 0 1-.606-.092c-.153-.032-.239-.007-.272.08-.03.08 0 .128.085.128.097 0 .12.053.083.197a.383.383 0 0 0 .1.36c.082.09.203.296.269.459.065.163.145.315.177.338.052.038.147.591.159.924.003.09.047.08.18-.04.111-.102.162-.23.138-.352zm.927-.807c-.023-.058-.042-.01-.042.106 0 .117.019.164.042.106a.327.327 0 0 0 0-.212zm7.628-.112c-.08-.081-.243.05-.182.147.035.058.083.056.143-.004.05-.05.068-.114.039-.143zm-6.126-.022c.024-.039-.018-.16-.094-.268-.132-.188-.142-.19-.198-.035-.087.239.168.504.292.303zm-.457-.136c0-.02-.038-.06-.085-.09-.046-.028-.084-.011-.084.038 0 .05.038.09.084.09.047 0 .085-.017.085-.038zm.603-.612c-.074-.127-.09-.13-.092-.02-.003.142.086.27.146.21.02-.02-.005-.105-.054-.19zm-1.647-.578c0-.07-.016-.127-.034-.127a.55.55 0 0 0-.162.127c-.113.113-.109.127.035.127.088 0 .16-.057.16-.127zm1.975-.037c0-.09-.158-.204-.317-.228-.139-.021-.134.014.027.174.149.149.29.175.29.054zm-9.196-.137c.029-.075.015-.11-.033-.08-.046.029-.084.088-.084.132 0 .122.06.095.117-.052zm7.616-.448c-.023-.086-.19-.248-.371-.36-.182-.112-.331-.232-.332-.267-.004-.097-.257-.076-.257.021 0 .047.053.085.118.085s.206.111.315.248c.108.136.227.229.264.206.036-.023.09.018.117.091.072.186.195.166.146-.024zm8.692-.018c0-.044-.056-.08-.124-.08-.075 0-.105.05-.076.127.05.13.2.095.2-.047zm-.715 8.156a.168.168 0 0 1 .077-.212.298.298 0 0 0 .13-.239c0-.09.039-.165.085-.165.047 0 .085-.041.085-.092 0-.05.191-.288.425-.527.234-.239.407-.483.384-.542-.023-.06.014-.109.082-.109.069 0 .125-.033.125-.075 0-.041.133-.269.296-.506.163-.237.296-.464.296-.504 0-.04.077-.143.17-.227.193-.175.226-.466.053-.466-.134 0-.112-.409.037-.687.05-.095.072-.226.047-.29-.025-.065.008-.172.074-.238s.099-.14.074-.165c-.04-.04.112-.451.306-.827a.314.314 0 0 0-.006-.265c-.05-.09-.034-.168.05-.237.069-.057.104-.138.079-.179-.026-.041-.002-.075.052-.075.055 0 .076-.06.047-.133-.028-.073-.005-.216.05-.318a.752.752 0 0 0 .078-.384c-.014-.117.01-.178.06-.148.047.03.101.005.121-.054.044-.128-.601-.759-.708-.693-.042.026-.076.137-.076.248 0 .111-.034.223-.076.249-.042.026-.123.247-.18.492-.059.244-.174.542-.257.66-.204.291-.098.481.183.33.11-.058.252-.159.317-.223.09-.09.143-.094.237-.016.102.084.08.12-.133.224-.14.068-.277.195-.305.283-.028.088-.093.16-.144.16-.051 0-.072.022-.046.048.064.063-.308.46-.43.46-.054 0-.097.057-.097.127 0 .187-.318.155-.423-.042-.05-.093-.147-.17-.215-.17a.122.122 0 0 1-.124-.12c0-.065-.043-.134-.097-.152-.071-.023-.07-.082.007-.225.057-.106.082-.247.057-.313-.025-.067-.007-.12.04-.12.049 0 .066-.036.04-.078-.026-.042 0-.07.059-.061.221.034.33.162.287.338a.47.47 0 0 0 .09.35c.107.137.123.142.081.022-.028-.082-.011-.148.036-.148.048 0 .059-.047.024-.103-.035-.056-.07-.397-.077-.756-.015-.7.077-1.035.176-.64.031.125.09.207.13.183.04-.025.036-.139-.007-.254-.054-.14-.05-.208.01-.208.054 0 .068-.097.034-.25-.03-.136-.021-.317.02-.402.04-.084.052-.286.025-.449a1.786 1.786 0 0 1 .034-.614c.064-.246.124-.317.27-.317.102 0 .2.028.215.063.032.074.63.53.694.53.024 0 .168.114.321.253.153.14.327.254.386.254.06 0 .109.036.109.08 0 .043.072.101.16.13.089.027.185.144.214.26.049.194.218.298.218.133 0-.04.21-.218.466-.395.256-.176.466-.349.466-.383 0-.035.17-.238.377-.452.386-.396.688-.495.78-.255.074.193.444.317.588.197.085-.07.182-.072.35-.007.128.049.423.087.656.084.233-.003.538.023.678.058.14.036.387.079.55.097.163.017.391.043.508.058a.762.762 0 0 0 .36-.046c.094-.046.148-.039.148.02 0 .051.035.072.077.045.043-.026.193.067.333.207.14.14.295.254.345.254.05 0 .092.039.092.085 0 .047.075.085.166.085.095 0 .221.1.293.233.07.128.128.183.13.123.002-.064.094-.02.219.106.24.24.462.282.462.088 0-.07.038-.127.084-.127.047 0 .085-.079.085-.175a.9.9 0 0 1 .101-.36c.127-.23.091-.585-.067-.676-.18-.102-.142-.313.056-.313.095 0 .155.031.131.069-.023.037.07.2.208.36.243.281.252.285.301.101.028-.104.084-.169.125-.144.04.026.053-.01.027-.078-.03-.078.022-.145.144-.184.146-.047.236-.01.378.156.103.12.204.2.224.18.02-.02.088.059.15.175.062.117.143.212.18.212.036 0 .16.085.274.19.378.344.563.487.63.487.11 0 .335.458.29.593-.022.07-.122.219-.22.33-.1.113-.126.174-.06.135.074-.043.058.015-.042.152-.194.264-.375.356-.375.19 0-.065-.073-.142-.164-.17a.315.315 0 0 1-.19-.24c-.034-.24-.17-.24-.208 0a.318.318 0 0 0 .14.305c.092.064.145.14.117.168-.028.027.005.129.071.224.068.096.148.15.178.119.031-.031.056-.014.056.038 0 .157-.167.207-.221.066-.057-.148-.287-.182-.287-.041 0 .132.19.3.42.374l.201.064-.191.144c-.105.08-.183.217-.174.307.01.09.012.182.004.206-.068.208-.068.846 0 .846.133 0 .237-.364.15-.529-.048-.092-.046-.148.004-.148.044 0 .106-.118.138-.261.05-.225.086-.254.263-.21.138.035.22.011.252-.072.026-.068.1-.104.164-.08.215.083.421-.161.403-.478-.051-.879-.085-1.188-.136-1.24-.032-.031-.015-.108.037-.17.052-.063.061-.114.02-.114-.04 0-.08-.132-.088-.293-.013-.257.003-.282.13-.203.154.097.388.618.479 1.072.045.227.078.26.174.18.066-.053.098-.132.072-.174a1.128 1.128 0 0 1-.086-.287c-.027-.151 0-.21.096-.21.073 0 .112-.035.086-.077-.083-.135-.116-.94-.038-.94.042 0 .078-.104.081-.232.01-.347.098-.484.33-.51a.848.848 0 0 0 .402-.205c.107-.1.194-.159.194-.13 0 .028.103-.001.229-.067.22-.114.233-.109.338.142.2.476.064 1.596-.194 1.596-.06 0-.132.076-.162.169-.03.093-.092.17-.138.17-.13 0-.327.225-.327.374 0 .073-.029.129-.064.123-.192-.03-.288.024-.244.137.03.078 0 .127-.076.127a.126.126 0 0 0-.124.127c0 .161.177.161.562 0 .273-.113.297-.113.25.008a.863.863 0 0 0-.05.169c0 .019-.056.035-.123.035-.111 0-.555.35-.555.437 0 .037.45.025.487-.013a.203.203 0 0 1 .085-.034.661.661 0 0 0 .169-.079.903.903 0 0 1 .254-.097c.082-.016.263-.077.402-.135a1.66 1.66 0 0 1 .374-.113c.173-.012.215-.21.057-.271-.188-.072-.169-.154.099-.434.128-.135.299-.328.38-.43.08-.102.204-.186.273-.186.103 0 .109.038.033.205-.07.154-.066.266.02.46.062.14.14.237.175.216.035-.021.103.036.151.127a.499.499 0 0 0 .242.215c.085.026.234.19.333.362l.18.314.056-.225c.044-.173.006-.279-.164-.462-.121-.131-.202-.286-.18-.344.022-.058-.053-.167-.167-.241-.165-.108-.19-.168-.124-.292.06-.111.053-.176-.024-.224-.059-.038-.212-.285-.34-.55-.127-.265-.27-.506-.317-.535-.047-.03-.067-.084-.044-.12.051-.084.454-.014.518.088.025.041.12.075.21.075s.165.03.165.066c0 .036.104.111.232.166.128.055.29.137.36.182.126.081.466.206.466.172 0-.036.763.37.804.427.111.153 1.171.615 1.27.553.106-.065-.264-.41-.621-.58-.168-.08-.335-.191-.37-.248-.079-.121-.345-.3-.554-.37-.081-.027-.148-.078-.148-.113 0-.036-.227-.212-.504-.393-.278-.18-.506-.348-.508-.373-.008-.1.492-.23.573-.148.055.055.224.054.493-.004.425-.09.623-.026.623.204 0 .062.095.208.212.324.116.117.212.249.212.294 0 .045.104.206.231.357s.232.33.233.398c0 .068.085.178.186.246.176.117.195.106.362-.222.097-.19.214-.345.26-.345l.124-.002c.022-.001.213-.094.423-.205.21-.112.382-.166.382-.12 0 .045.105.027.233-.04.367-.193.735-.342.804-.326.035.008.064-.025.064-.075 0-.049.038-.066.084-.037.047.029.085 0 .085-.064s.095-.2.212-.302c.216-.187.465-.246.465-.109 0 .062.527.327.783.395a.652.652 0 0 1 .106.038.73.73 0 0 0 .106.039c.241.067.51.221.643.368.085.095.228.159.317.142.096-.019.197.035.25.134.066.124.148.154.334.121.157-.027.271-.002.314.072.077.13.458.355.555.327.035-.01.064.023.064.073 0 .12.167-.054.445-.465.123-.182.205-.363.18-.402-.023-.039.036-.07.132-.07.095 0 .174-.03.174-.066 0-.036.152-.051.339-.034.195.02.338-.004.338-.054 0-.048.13-.167.288-.264.36-.224.694-.13.782.22.032.128.204.384.383.57.179.187.325.374.325.418 0 .043.172.25.381.46.21.209.381.432.381.495 0 .062.19.302.424.532.232.23.423.46.423.51 0 .05.043.091.095.091.07 0 .07-.03.002-.112s-.066-.139.007-.212c.076-.076.074-.1-.008-.1-.131 0-.094-.354.041-.398.053-.017.137.133.187.334.051.202.178.556.282.787.194.43.205.466.23.76a.757.757 0 0 0 .097.296c.074.113.092.113.167 0 .112-.171.108-.622-.007-.737-.068-.068-.045-.108.084-.15.141-.044.178-.125.178-.389 0-.183.04-.333.09-.333.05 0 .067-.036.04-.08-.028-.046.034-.062.143-.038.59.13.596.13.542-.012a.874.874 0 0 1-.053-.175c0-.05-.416-.21-.677-.258a.751.751 0 0 1-.334-.16c-.106-.104-.073-.164.247-.46.203-.187.4-.34.437-.34.037 0 .11-.08.162-.177.052-.097.117-.155.144-.127.027.027-.003.149-.068.27-.104.194-.101.232.028.326.08.059.146.145.146.191 0 .089.435.59.481.553.096-.075.28.002.28.12 0 .165.396.706.516.706.053 0 .055-.054.004-.148a.793.793 0 0 1-.084-.214c-.009-.123-.302-.57-.374-.57-.04 0-.05-.035-.023-.078.027-.044.01-.103-.038-.133-.048-.03-.066-.09-.039-.134.027-.043-.012-.103-.088-.132-.075-.029-.12-.098-.098-.154.022-.056-.062-.231-.185-.389-.3-.383-.626-1.195-.522-1.299.104-.104.678.199.678.36 0 .076.06.101.174.071.11-.029.307.043.53.192.194.131.544.302.777.38.233.08.484.198.557.264.173.157.936.544 1.073.544.058 0 .106-.057.106-.126 0-.07-.032-.127-.072-.127-.039 0-.182-.099-.317-.22a1.863 1.863 0 0 0-.479-.304c-.128-.047-.233-.116-.233-.154 0-.037-.208-.206-.462-.375-.254-.168-.485-.343-.513-.389-.028-.045-.125-.082-.215-.082s-.164-.045-.164-.1c0-.054-.055-.159-.121-.232-.11-.12-.065-.137.444-.158.311-.014.68-.033.82-.043.14-.01.267.02.284.067.017.047.097.18.179.296.08.117.13.26.11.318-.02.058.006.106.058.106.053 0 .185.192.295.428.322.696.67.867.761.376.05-.266.126-.338.323-.306.035.006.064-.022.064-.061 0-.04.139-.076.308-.083.17-.006.38-.075.466-.154.087-.078.157-.119.157-.09 0 .059.806-.161 1.072-.293.215-.108.368-.036.368.173 0 .082.092.236.205.343.233.218.203.433-.056.405-.095-.01-.19.027-.209.082-.024.069.104.1.414.099 1.475-.003 2.1.027 2.1.1 0 .045-.047.084-.105.088-.406.027-.742.1-.893.194-.062.038-.163.024-.232-.034-.102-.085-.124-.07-.124.086 0 .127.039.174.119.143.065-.025.244.047.397.16.154.114.324.206.38.206.054 0 .148.06.208.131.06.072.166.12.236.106.124-.024.154-.14.193-.72.01-.15.045-.255.078-.235.033.02.062-.172.064-.429.003-.38.04-.494.2-.623.106-.087.238-.14.292-.12.053.02.12-.021.147-.093.028-.072.105-.11.172-.084.067.026.147.005.178-.045.032-.05.095-.068.141-.04.047.029.149 0 .227-.062.266-.212.516-.322.854-.376.322-.052.335-.046.285.146a.6.6 0 0 1-.169.288.382.382 0 0 0-.135.211.795.795 0 0 1-.1.252.804.804 0 0 0-.098.254c-.01.07-.09.185-.178.256-.088.07-.145.173-.127.227.042.124-.204.517-.473.757-.111.1-.177.223-.145.275.033.052 0 .155-.073.227-.126.126-.179.29-.094.29.022 0 .336-.142.699-.315.362-.174.686-.308.718-.298.032.01.133-.077.224-.193.09-.115.245-.21.343-.21.098 0 .179-.038.179-.085 0-.046.068-.084.152-.084a.408.408 0 0 0 .251-.1c.075-.074.113-.061.158.057.042.109-.007.211-.166.348-.125.107-.226.22-.226.25s-.095.13-.212.222c-.116.091-.211.202-.211.245 0 .105-.314.414-.367.361-.023-.023-.066.038-.097.134-.03.097-.111.176-.18.176-.067 0-.155.086-.195.19-.04.105-.249.375-.464.6-.215.224-.39.443-.39.486 0 .043-.04.079-.09.079-.048 0-.182.1-.296.224-.154.166-.207.189-.207.088 0-.075.073-.205.163-.289.16-.15.345-.534.345-.72 0-.053-.086-.014-.191.084l-.19.18-.235-.253c-.244-.262-.517-.266-.29-.004.203.233.212.382.039.63-.09.129-.144.292-.117.36.027.07-.03.206-.128.303-.25.25-.092.362.29.203.17-.071.38-.129.469-.129.088 0 .263-.081.39-.18.19-.15.263-.165.434-.087.264.12.262.235-.006.302-.116.029-.211.09-.211.133 0 .045-.213.181-.472.304-.26.123-.494.28-.52.348-.027.07-.114.108-.201.085-.094-.025-.163.01-.179.092-.014.072-.11.138-.212.146-.103.008-.17-.013-.15-.046.02-.032-.04-.127-.131-.21-.105-.094-.167-.113-.167-.048 0 .056-.033.082-.074.057-.04-.025-.139.027-.22.116-.138.153-.138.16.01.123.1-.024.272.072.468.26.172.164.353.298.403.298.05 0 .09.034.09.074 0 .041.12.098.266.128.147.029.376.167.509.307.133.14.3.253.371.253.071 0 .151.057.178.127.027.07.095.127.152.127.057 0 .19.093.298.207.107.114.275.22.373.233.099.014.192.093.208.176.024.125-.02.144-.266.113a1.438 1.438 0 0 1-.514-.18 1.534 1.534 0 0 0-.533-.186 1.508 1.508 0 0 1-.523-.18.804.804 0 0 0-.448-.11c-.136.014-.24-.016-.24-.07 0-.052-.048-.085-.106-.073-.058.011-.194-.027-.301-.087-.108-.06-.24-.093-.293-.075-.053.017-.166-.028-.252-.1a.708.708 0 0 0-.215-.14.948.948 0 0 1-.188-.063 1.406 1.406 0 0 0-.296-.08.835.835 0 0 1-.264-.083c-.1-.063-.202 0-.202.125 0 .041.035.054.078.027.106-.066.515.098.515.207 0 .049-.086.07-.19.046-.106-.023-.692-.06-1.303-.083a27.025 27.025 0 0 1-1.185-.057c-.122-.029-.54.108-.54.176 0 .035-.194.165-.431.288l-.432.224-.357-.158c-.382-.17-1.259-.755-1.306-.872-.048-.123-.332-.078-.385.062-.028.073-.012.207.037.298.048.09.065.202.037.248-.028.045-.022.13.015.188.093.15.124.403.049.4-.136-.006-.454-.336-.403-.418.03-.048.014-.087-.033-.087-.048 0-.067-.054-.042-.12.028-.072-.024-.141-.13-.175-.096-.03-.175-.11-.175-.177 0-.066-.032-.121-.07-.121-.04 0-.117-.15-.172-.334-.06-.202-.166-.354-.269-.387-.093-.03-.147-.089-.12-.132.027-.043.013-.078-.031-.078-.144 0-.178.36-.055.597.173.334.14.842-.053.842-.083 0-.172.033-.197.074-.025.041-.12.094-.21.118-.134.035-.161.002-.15-.18a.63.63 0 0 1 .12-.336.454.454 0 0 0 .107-.27c0-.087.037-.181.082-.21.047-.028.06-.214.031-.427-.033-.244-.02-.378.039-.378.127 0-.031-.524-.194-.644a.334.334 0 0 1-.128-.233c0-.076-.032-.139-.07-.139-.04 0-.144-.133-.232-.296-.15-.28-.375-.403-.375-.207 0 .05-.038.066-.085.038-.046-.03-.084-.012-.084.037 0 .139.335.44.426.384.045-.028.082-.01.082.042 0 .05-.057.114-.127.14-.07.028-.127.097-.127.156 0 .058-.095.177-.212.265-.116.087-.212.228-.212.313a.796.796 0 0 1-.084.313c-.069.128-.04.19.148.324.128.09.309.18.402.197.093.018.17.079.17.135 0 .105-.59.445-.77.445-.054 0-.149.06-.21.133a.29.29 0 0 1-.269.091c-.087-.023-.177.005-.198.061-.058.15-.374.152-.374.002 0-.07.062-.114.14-.1.228.04.22-.15-.01-.255-.118-.054-.215-.14-.215-.193 0-.053-.052-.076-.116-.051a.207.207 0 0 1-.203-.041c-.058-.058-.148-.053-.277.016-.105.056-.336.1-.513.098-.352-.005-.427.099-.374.514.016.128-.003.233-.043.233-.04 0-.058.078-.04.173.06.304-.029.417-.24.305-.45-.237-.818-.59-.818-.782 0-.154-.063-.216-.275-.27-.196-.052-.308-.04-.387.039-.062.061-.146.111-.187.111-.14 0-.492-.55-.55-.861-.054-.295-.044-.313.184-.34.186-.023.305.038.522.264.178.186.302.26.339.2.032-.052.198-.12.37-.152.27-.051.31-.088.304-.292a.773.773 0 0 1 .065-.35c.154-.248.1-.425-.143-.473-.131-.027-.282-.1-.335-.165-.054-.064-.145-.117-.204-.117-.058 0-.153-.056-.21-.126-.058-.069-.143-.102-.19-.073-.046.028-.109.018-.138-.023-.045-.06-.295-.199-.795-.439-.035-.016-.064.011-.064.062 0 .05.053.091.118.091.151 0 .248.247.146.371-.043.052-.119.247-.17.434-.105.389-.41.599-.59.406-.059-.063-.152-.085-.207-.05a.987.987 0 0 1-.311.092c-.273.037-.269.028-.153.336.078.205.077.309-.002.46-.056.107-.117.367-.136.576-.019.21-.042.42-.052.466a.317.317 0 0 0-.002.127c.085.228.066.591-.036.675-.137.114-.33.038-.246-.098.03-.048.002-.121-.062-.162-.085-.054-.088-.074-.011-.075.058-.001.106-.06.106-.134 0-.072-.035-.11-.077-.084-.042.026-.07-.138-.061-.367.014-.385.002-.412-.18-.392-.107.012-.217-.014-.243-.058-.027-.043-.104-.058-.171-.032-.067.026-.195.001-.284-.054-.234-.147-.282-.045-.187.4.067.315.06.402-.034.438-.065.025-.118.156-.118.29 0 .28.006.278-.312.148a2.21 2.21 0 0 0-.323-.111c-.163-.025-.426-.164-.754-.4-.181-.131-.366-.238-.41-.238-.045 0-.198-.098-.34-.218-.151-.127-.325-.2-.415-.177-.096.025-.155-.005-.155-.079 0-.065-.029-.11-.064-.098-.035.012-.073-.017-.085-.063-.032-.129.172-.111.34.029.08.068.147.094.147.058s.051-.023.114.029c.062.052.134.074.16.049.024-.025.278.073.563.218.337.171.58.244.693.208.163-.052.165-.068.04-.26-.074-.112-.095-.204-.048-.204.048 0 .087-.061.087-.136 0-.106-.066-.129-.296-.102-.163.019-.297 0-.297-.04s-.104-.065-.232-.055a.962.962 0 0 1-.377-.044c-.08-.034-.186-.036-.237-.005-.05.032-.138.022-.195-.022-.056-.044-.218-.078-.36-.077-.378.004-.47-.077-.373-.332.113-.3.1-.445-.028-.288a.491.491 0 0 1-.272.15c-.198.028-.266.048-.55.164a1.323 1.323 0 0 1-.487.07c-.182-.012-.275.02-.275.095 0 .064-.09.114-.207.114-.24 0-.37.148-.19.217.068.026.27.054.45.063.18.01.352.05.382.091.03.042.305.078.611.08.623.005.775.136.48.411-.094.088-.172.132-.172.098 0-.035-.045-.017-.101.039a.412.412 0 0 1-.254.101c-.084 0-.153.038-.153.085 0 .047-.066.085-.148.086-.081 0-.238.096-.348.212l-.2.21-.29-.254c-.16-.14-.335-.254-.39-.254-.055 0-.187-.101-.293-.225-.106-.124-.193-.2-.193-.169s-.118-.049-.262-.177c-.368-.328-.456-.299-.451.148.002.21.04.374.086.365.045-.008.08.106.08.253-.003.187-.049.277-.152.297-.09.017-.148-.023-.148-.104 0-.072-.114-.317-.254-.544-.14-.227-.254-.45-.254-.493 0-.044-.125-.217-.278-.384-.153-.167-.268-.336-.256-.376.013-.04-.013-.13-.057-.2-.07-.11-.099-.108-.228.021-.082.082-.107.149-.055.149.095 0 .203.4.2.74 0 .105.038.19.087.19.05 0 .06.047.023.107a.4.4 0 0 0-.045.239c.027.168-.569.374-.7.242-.059-.058-.052-.108.021-.153.065-.04.084-.13.049-.222-.044-.113-.03-.137.048-.088.081.05.093.019.048-.124-.033-.105-.028-.17.012-.146.073.046.11-.178.11-.68 0-.151.032-.275.073-.275.095 0 .064-.226-.077-.571-.127-.309-.21-.346-.283-.127-.026.081-.162.277-.302.435-.139.157-.253.321-.253.364 0 .043-.035.057-.078.03-.044-.027-.103.028-.133.122-.03.094-.096.17-.147.17-.051 0-.069.025-.039.055.03.03-.062.187-.204.35a2.688 2.688 0 0 0-.358.513c-.104.23-.557.733-.66.733a.185.185 0 0 0-.111.052c-.028.028-.227-.038-.441-.147-.215-.108-.424-.177-.464-.152-.041.025-.074-.014-.074-.086 0-.073-.038-.132-.085-.132-.187 0-.069-.184.172-.268.209-.073.247-.123.203-.27-.03-.1-.143-.267-.251-.37-.172-.165-.192-.246-.152-.636.025-.245.051-.827.058-1.293.007-.465.043-.894.08-.952.04-.062.031-.106-.022-.106-.113 0-.735.388-.965.603-.094.088-.198.16-.23.16-.033 0-.083.058-.11.13-.028.073-.016.11.027.084.042-.026.09.038.105.144.018.126.08.187.183.178.119-.01.147.032.118.17-.07.325-.104.435-.148.478-.127.126-.496.915-.45.962.03.03.011.054-.043.054-.055 0-.099.073-.099.163 0 .089-.118.392-.262.674-.25.49-.479.678-.673.558-.1-.062-.843.134-.843.222 0 .082-.973.433-1.27.458-.17.014-.254-.017-.254-.095 0-.064.038-.117.085-.117.046 0 .084.044.084.098 0 .057.07.035.164-.05.095-.086.142-.205.112-.282-.06-.158-.333-.443-.424-.444-.035 0-.178-.107-.317-.237-.14-.13-.318-.261-.395-.29-.12-.046-.13-.018-.067.203.04.141.123.317.183.392.06.074.067.11.016.079-.158-.095-.577-.254-.71-.27-.28-.035-.762-.233-.722-.297.023-.037-.02-.063-.096-.056-.076.006-.155-.036-.176-.095-.02-.058.023-.105.097-.105.195 0 .164-.262-.037-.315-.094-.025-.16-.103-.148-.174.013-.07-.025-.146-.083-.166-.058-.02-.106.023-.106.097 0 .074-.04.134-.09.134-.049 0-.067.036-.04.079.026.043.01.103-.038.132-.047.03-.086.177-.086.328 0 .15-.048.377-.106.503-.112.244-.351.267-.718.07-.147-.078-.361-.14-1.06-.305-.212-.05-.317-.126-.317-.229 0-.059.135-.067.402-.024.72.116.86.115.812-.007-.024-.062.036-.163.133-.223s.177-.156.177-.213c0-.056.047-.133.106-.17.151-.097.5-.867.437-.968-.029-.047-.101-.066-.16-.043a.193.193 0 0 1-.189-.04c-.05-.05-.157-.008-.289.113-.114.106-.311.24-.438.297-.126.057-.23.138-.23.18 0 .043-.066.1-.147.127-.197.066-.757.393-.673.393.036 0 .016.053-.044.118s-.138.101-.172.08c-.035-.021-.064.002-.064.051 0 .05-.076.09-.17.09-.092 0-.169.03-.169.065 0 .036-.142.14-.317.23-.175.09-.375.216-.445.28-.114.103-.25.196-.804.546a1.26 1.26 0 0 0-.212.159c-.023.028-.132.08-.243.115-.157.049-.186.038-.13-.052a.503.503 0 0 0 .075-.2c.005-.166.472-.804.59-.804.065 0 .143-.113.173-.25.03-.138.122-.272.204-.298.081-.026.23-.123.33-.217.173-.16.175-.178.039-.337-.08-.093-.184-.168-.233-.168-.05 0-.145-.077-.212-.17-.067-.093-.182-.169-.256-.169-.074 0-.247-.152-.384-.337-.137-.185-.297-.337-.355-.338-.058-.001-.106-.04-.106-.087 0-.047-.057-.085-.127-.085s-.127-.038-.127-.084c0-.047-.073-.085-.163-.085-.169 0-.25.157-.305.597-.018.14-.06.297-.092.35a.926.926 0 0 0-.08.316 5.96 5.96 0 0 1-.05.388c-.026.151.024.172.468.194.385.019.487-.001.454-.088-.024-.062.005-.225.064-.363l.108-.251.009.38c.004.21.032.52.06.69.05.293.038.313-.21.367-.145.032-.263.1-.263.153 0 .07-.026.069-.096-.001-.072-.072-.128-.064-.224.032-.088.087-.146.098-.185.034-.038-.06-.11-.034-.212.079-.086.094-.2.171-.253.171-.054 0-.256.076-.449.17-.192.093-.422.18-.511.193a1.345 1.345 0 0 0-.407.186c-.135.088-.32.155-.414.148a.68.68 0 0 0-.352.108c-.161.106-.19.104-.237-.02zm12.907-1.268c0-.228.543-1.802.622-1.803.04 0 .092.076.116.17.063.241.173.208.173-.053 0-.121.048-.25.107-.288.06-.036.116-.213.125-.392.01-.18.054-.32.097-.31.044.007.086-.139.093-.326.007-.187.047-.384.089-.438.146-.193.067-.58-.148-.723-.114-.076-.181-.094-.149-.04.033.053 0 .119-.072.147-.073.028-.108.089-.08.136.03.047.015.085-.031.085-.047 0-.115-.048-.152-.106-.077-.122-.067-.084-.153-.55-.036-.198-.103-.36-.15-.36-.045 0-.064-.098-.041-.218.025-.132-.001-.235-.066-.26-.143-.055-.055-.369.104-.369.07 0 .233.115.363.254.338.362.42.324.402-.18-.012-.307-.06-.461-.163-.526-.096-.06-.119-.124-.066-.187.056-.067.01-.091-.158-.081-.294.017-.458.112-.389.224.029.046-.023.104-.115.128-.092.024-.214.145-.27.269-.098.215-.107.218-.22.064-.105-.144-.122-.146-.17-.02-.03.077-.114.14-.187.14s-.204.065-.29.144a.781.781 0 0 1-.34.17.521.521 0 0 0-.297.196c-.064.092-.16.167-.211.167-.052 0-.16.06-.242.133-.12.11-.176.114-.315.028-.144-.09-.155-.137-.074-.324.053-.12.144-.248.204-.285.18-.114.134-.576-.062-.628-.093-.024-.17-.072-.17-.105 0-.034-.097-.106-.216-.16-.119-.054-.195-.134-.168-.177.027-.043-.038-.09-.143-.105-.12-.017-.184-.078-.17-.162.011-.073-.036-.134-.106-.134s-.128.067-.128.15a.461.461 0 0 1-.127.276.578.578 0 0 0-.127.356c0 .126-.067.28-.148.342-.082.062-.104.114-.05.115.132.004.043.318-.107.376-.065.025-.118.006-.118-.042s-.067-.08-.148-.073c-.286.03-.327-.007-.335-.298-.005-.162-.07-.355-.145-.43-.074-.075-.114-.171-.088-.214.066-.107.208-.098.208.013 0 .098.208.332.296.332.03 0 .048-.085.04-.19-.027-.329-.001-.398.13-.348.08.03.126-.001.126-.088 0-.074-.038-.136-.084-.136-.047 0-.085-.057-.085-.127s-.054-.127-.12-.127a.857.857 0 0 1-.254-.051c-.213-.082-.16.182.057.284.196.091.167.091-.717-.01-.2-.022-.254.026-.411.36-.1.213-.236.425-.301.474-.066.048-.15.201-.188.34-.07.266-.274.347-.32.128-.136-.65-.41-.98-.472-.572-.016.105-.08.18-.14.167-.06-.012-.086.015-.057.062.029.047.015.156-.031.242s-.106.343-.134.57c-.027.228-.11.511-.185.629-.143.225-.622.704-.622.622 0-.026-.055-.002-.123.055-.068.056-.163.078-.211.047-.05-.03-.089-.02-.089.023 0 .042-.152.145-.339.23-.186.083-.338.17-.338.193 0 .082.368.356.478.356.063 0 .114.039.114.085 0 .047.05.085.112.085s.24.114.397.254c.404.361 1.185.562 1.185.305 0-.244.537-.302.67-.072.048.081.088.121.09.088 0-.032.183-.005.404.062.28.085.412.093.434.029.02-.06.057-.051.104.023.057.09.073.083.075-.033 0-.081-.06-.148-.136-.148-.11 0-.125-.057-.08-.302.032-.167.078-.357.104-.424.025-.066.003-.12-.05-.12-.059 0-.041-.083.046-.216.078-.119.146-.357.153-.53.006-.172.043-.365.083-.428.108-.173-.128-.286-.25-.12-.053.073-.118.1-.144.057-.052-.085.666-.8.734-.732.024.024.16-.005.303-.064.306-.127.315-.121.38.25.028.157.074.324.102.37.03.047.009.057-.046.023-.057-.035-.098-.008-.098.067 0 .07.035.148.077.174.042.026.072.179.068.34-.005.16.044.39.108.51.104.194.1.235-.037.364-.085.08-.128.098-.095.04.032-.058.028-.106-.01-.106-.037 0-.074-.1-.081-.222a.713.713 0 0 0-.202-.402c-.104-.1-.164-.135-.134-.08.031.056.002.132-.064.17-.073.042-.131.247-.15.523-.029.442-.022.459.259.61.159.086.326.194.373.24.055.056.137.056.239.002.119-.064.19-.043.302.088.081.095.187.172.235.172.048 0 .135.076.194.17.146.234.258.211.21-.043-.023-.117-.1-.212-.172-.212-.073 0-.11-.021-.084-.047.026-.026-.005-.245-.07-.487-.158-.593-.15-.651.08-.651.109 0 .267-.076.352-.17.084-.093.198-.169.254-.169.088 0 .198-.076.606-.418a.97.97 0 0 1 .314-.137.696.696 0 0 0 .314-.173c.054-.065.151-.118.215-.118s.117-.039.117-.085c0-.047.117-.085.26-.085.256 0 .259.005.225.381-.019.21-.002.381.037.381s.07.153.07.339c0 .186.039.339.085.339.047 0 .085.076.085.17 0 .148-.021.156-.17.064-.093-.058-.169-.156-.169-.217 0-.08-.09-.098-.317-.066-.598.085-.868.152-.868.218 0 .036-.181.095-.402.131-.221.037-.336.082-.254.1.081.02.148.073.148.12 0 .128.2.302.308.266.052-.018.12.064.148.181.03.117.206.364.392.548.185.183.337.36.337.39 0 .03.134.185.297.344.458.445.324.83-.192.55a1.857 1.857 0 0 0-.462-.131c-.173-.028-.364-.097-.423-.153a.6.6 0 0 0-.32-.116 4.129 4.129 0 0 1-.591-.11c-.209-.054-.445-.08-.525-.06-.08.021-.164-.005-.186-.058-.027-.065-.042-.062-.046.011-.004.06.06.134.141.165a.915.915 0 0 1 .303.251c.178.226.396.258.396.058 0-.11.024-.117.123-.035.068.056.163.078.212.048.048-.03.135-.026.192.01a.736.736 0 0 0 .233.083c.07.01.281.063.467.117.186.053.406.096.487.095.082 0 .148.032.148.073 0 .063.142.126.36.16.035.005.064-.055.064-.134zm-6.815-2.48c-.033-.053.018-.181.114-.283.112-.12.15-.226.104-.3-.058-.093-.177-.096-.67-.012-.83.14-1.262-.016-.694-.25.138-.058.274-.178.302-.266.029-.09.085-.141.126-.116.04.025.114-.029.163-.12a.517.517 0 0 1 .256-.219c.092-.03.216-.156.277-.28.06-.126.146-.23.192-.232.115-.004.496-.216.558-.31.027-.043.053.039.057.181.004.143-.027.26-.069.26-.042 0-.055.053-.03.118s.004.143-.045.174c-.05.03-.09.147-.09.258 0 .11-.035.223-.078.249-.042.026-.059.115-.037.198s-.007.263-.063.402a2.857 2.857 0 0 0-.126.368c-.038.189-.178.292-.247.18zm4.029-2.563a.862.862 0 0 0-.205-.304c-.072-.06-.155-.22-.185-.357-.03-.136-.092-.248-.137-.248-.046 0-.06-.036-.033-.08.038-.063.656-.073.891-.015.023.006.042.236.042.511 0 .388-.034.523-.15.595-.123.077-.162.059-.223-.102zm32.758 4.345a.316.316 0 0 0-.147-.248c-.081-.045-.118-.112-.082-.148.084-.084.991.222.991.335 0 .047.026.06.057.028.031-.031.148.003.259.076.118.077.33.12.514.104l.313-.027-.326-.146c-.237-.106-.313-.184-.276-.281a.795.795 0 0 0 .052-.226c0-.05.025-.067.056-.036.065.064.335-.29.301-.394-.012-.039.016-.046.064-.017.047.03.13-.044.185-.163.106-.232.241-.267.498-.13.126.068.2.05.333-.084.095-.094.212-.171.261-.171.05 0 .07-.034.044-.076-.026-.04.005-.117.067-.17.094-.077.07-.184-.136-.601-.137-.28-.284-.508-.326-.508-.042 0-.077-.078-.077-.172 0-.095-.055-.193-.122-.219-.067-.026-.146-.16-.177-.298-.038-.175-.098-.243-.195-.223-.157.032-.16.156-.037 1.144.085.68.033.883-.182.705-.113-.094-.134-.089-.134.03 0 .077-.047.133-.105.124a.662.662 0 0 0-.276.051c-.613.247-.743.297-.772.297-.017 0-.032-.133-.032-.296 0-.163.042-.296.094-.296.051 0 .072-.056.046-.125-.026-.068-.017-.143.021-.167.038-.023.117-.271.177-.55.06-.28.14-.489.181-.464.04.025.077-.043.08-.15.011-.347.08-.61.176-.67a.11.11 0 0 0 .035-.151c-.032-.052-.015-.094.037-.094.109 0 .023-.364-.096-.41-.04-.015-.074-.072-.075-.126 0-.148-.546-.65-.706-.65-.077 0-.14.056-.14.124 0 .144-.417.554-.563.554-.055 0-.183.135-.286.3-.102.166-.203.284-.224.263-.02-.02-.193.11-.383.29s-.375.31-.412.286c-.1-.061-.2.14-.213.427-.015.347-.122.736-.243.89-.055.07-.153.298-.218.507-.064.21-.161.409-.215.443-.088.054-.07.489.02.489.117 0 .596-.304.69-.438.062-.087.138-.142.17-.123.031.02.109-.02.172-.089.097-.105.088-.13-.058-.169-.26-.068-.134-.246.287-.407.247-.094.376-.194.376-.291 0-.215-.084-.268-.27-.168-.329.176-.489.16-.542-.051-.073-.29.015-.378.371-.375.62.004 1.486-.095 1.59-.18.074-.062.124-.06.164.006.032.052.045.102.029.11-.016.01-.144.078-.284.153-.14.075-.301.12-.36.099-.064-.024-.105.036-.105.154 0 .105-.074.27-.163.366a.877.877 0 0 0-.19.296c-.043.185-.261.426-.342.377-.04-.025-.113.072-.162.216-.05.143-.126.26-.168.26-.042 0-.076.074-.076.164 0 .173.053.175.91.04.175-.028.448-.065.607-.082.16-.018.312-.062.34-.098.07-.096.423-.081.44.018.006.047-.093.137-.221.2-.197.098-.245.098-.307 0-.04-.063-.074-.077-.075-.03-.003.125-.663.419-.898.4-.112-.01-.203.013-.203.05 0 .036-.127.066-.281.066a1.11 1.11 0 0 0-.542.186c-.144.103-.36.187-.482.187-.216 0-.32.162-.114.176.059.004.202.018.318.032a.735.735 0 0 0 .355-.05c.087-.045.163-.04.196.012.03.048.081.07.115.048.034-.02.117-.003.185.04.067.043.285.078.482.08.301 0 .36-.027.36-.165zm-9.652-.174c0-.046-.04-.084-.09-.084-.049 0-.065.038-.037.084.03.047.07.085.09.085.02 0 .037-.038.037-.085zm6.741-.342c0-.184-.037-.335-.08-.335-.042 0-.05-.086-.02-.19a5.18 5.18 0 0 0 .103-.444c.025-.14.094-.349.152-.466.125-.253.042-.647-.13-.61-.065.013-.238.08-.384.146-.237.11-.265.162-.272.505-.008.38.12.537.171.209.015-.095.065-.17.112-.167.126.01.087.683-.045.765-.09.056-.093.095-.01.196.075.09.079.142.013.183-.065.04-.067.09-.005.163.048.059.063.13.034.16-.083.083.138.307.258.261.06-.023.104-.184.103-.376zm-21.824-.081c.034 0 .07-.113.08-.252.011-.138.058-.35.104-.472.046-.122.062-.256.036-.3-.026-.042-.016-.077.022-.077.039 0 .074-.156.08-.348.004-.192.057-.378.116-.415.06-.036.084-.126.056-.2-.028-.073.007-.19.079-.262.202-.202-.063-.17-.33.04-.118.093-.27.17-.339.17-.232 0-.325.223-.28.677.024.242.082.487.13.545.1.119.035.217-.142.217-.074 0-.11-.073-.096-.19a.787.787 0 0 0-.097-.403 2.176 2.176 0 0 1-.13-.254c-.072-.309-.154-.508-.21-.508-.037 0-.054-.067-.039-.148.016-.082.031-.207.035-.278.004-.072.073-.138.155-.148.59-.07.867-.131.867-.193 0-.04.13-.062.288-.05.23.018.278-.004.238-.11-.042-.112-.029-.115.09-.018.076.062.172.092.213.067.04-.025.067.038.059.141-.012.148.297.568.417.568.015 0 .168.133.34.296.173.163.35.296.393.296.044 0 .08.057.08.127s.032.127.072.127c.04 0 .062.103.048.23-.014.125.007.287.047.358.057.102.086.076.135-.118.034-.136.111-.342.172-.458.06-.116.09-.243.066-.28-.024-.04.012-.07.08-.07.066 0 .143-.085.17-.187.027-.103.075-.16.108-.129.032.033.1.006.151-.057.051-.063.198-.14.326-.17.322-.074.31.138-.021.373-.14.1-.254.257-.254.349 0 .092-.058.279-.128.415-.112.216-.112.242-.003.2a.351.351 0 0 0 .173-.202.616.616 0 0 1 .16-.246c.09-.074.103.001.073.395-.093 1.224-.094 1.216.096 1.288.099.037.204.053.235.035.07-.04-.013-.728-.099-.823-.063-.07.116-.803.27-1.1.056-.11.04-.217-.059-.367-.131-.2-.13-.213.041-.257.099-.026.164-.09.145-.142-.02-.052.003-.167.047-.254.053-.103.053-.178 0-.212-.046-.029-.106-.338-.135-.687-.037-.458-.092-.665-.196-.741-.173-.127-.45-.14-.45-.022 0 .047.04.085.089.085.05 0 .068.036.041.079-.044.071.076.705.193 1.022.11.296.038.389-.511.655-.313.152-.606.276-.65.276a.125.125 0 0 0-.108.077c-.016.043-.15.096-.3.12-.248.038-.262.028-.17-.12.056-.089.13-.161.167-.161.114 0 .566-.545.568-.686.002-.092-.16-.184-.511-.29-.398-.12-.506-.187-.477-.296.02-.078-.034-.185-.12-.24-.196-.122-.498-.127-.498-.007 0 .05-.036.067-.081.04-.08-.05-.936.34-1.02.463-.023.035-.175.092-.338.127a1.718 1.718 0 0 0-.53.228c-.127.09-.232.135-.232.1s-.052.006-.115.093a.557.557 0 0 0-.095.333c.01.098.024.241.03.32a.535.535 0 0 0 .146.277c.074.074.111.196.082.272-.029.075.005.2.075.278.07.077.202.374.293.66.092.286.235.626.32.755l.153.235.027-.23c.014-.127.054-.23.087-.23zm-.284-.423c-.028-.047-.012-.085.038-.085.049 0 .09.038.09.085 0 .046-.017.084-.038.084-.02 0-.06-.038-.09-.084zm11.52.668c.033-.052.026-.119-.015-.149-.041-.03-.08-.11-.085-.18-.045-.564-.109-.635-.748-.846-.438-.145-.38-.38.096-.392.193-.005.41-.032.483-.06.072-.027.152-.017.177.024.026.042.164.042.32 0 .152-.04.443-.066.648-.056.258.012.386-.02.414-.102.028-.083-.003-.103-.098-.067-.076.03-.139.02-.139-.022 0-.041-.114-.1-.254-.13-.14-.031-.254-.087-.254-.125 0-.089-.332-.193-.564-.175-.101.008-.217-.046-.257-.118-.04-.073-.206-.143-.367-.155-.205-.016-.318-.078-.374-.205l-.08-.182-.109.183c-.06.101-.133.25-.162.332-.03.081-.111.148-.182.148-.103 0-.118.078-.078.402.027.221.091.574.143.783.05.21.108.51.128.668.037.309.092.408.179.322.03-.03.006-.112-.053-.183-.089-.107-.083-.13.03-.13.076 0 .138.039.138.085 0 .047.028.08.063.075.153-.024.299.015.248.066-.075.075.276.264.51.274.101.005.21-.034.243-.085zm-20.115-.14a.586.586 0 0 0-.072-.26c-.054-.085-.085-.066-.122.078-.028.105-.03.223-.007.261.077.124.203.075.202-.078zm25.105.064c.03-.046.012-.084-.037-.084-.05 0-.09.038-.09.084 0 .047.017.085.038.085.02 0 .06-.038.09-.085zm-.211-.353c0 .064.075.064.257 0 .256-.088.257-.09.112-.312a2.67 2.67 0 0 0-.264-.342c-.172-.172.055-.297.238-.131.075.067.176.122.225.122.048 0 .132.054.186.118.204.246 1.024.234 1.024-.015 0-.129-.514-.284-.76-.23-.294.064-.437.002-.373-.166.026-.067.123-.103.225-.083.1.019.205-.006.235-.055.03-.05.223-.109.428-.132.59-.069.63-.092.46-.28-.08-.088-.2-.14-.267-.115-.066.025-.17.004-.232-.047-.062-.052-.132-.074-.156-.05-.024.024-.095-.018-.157-.092-.091-.11-.092-.148-.003-.203.168-.104.03-.412-.248-.555-.133-.07-.299-.206-.368-.305-.069-.098-.167-.153-.219-.121-.051.032-.083.02-.07-.025.027-.096-.793-.911-.887-.881-.035.01-.054-.008-.042-.044.011-.034-.012-.082-.052-.105-.04-.024-.34-.301-.666-.617-.615-.596-.704-.62-.943-.241-.058.091-.088.093-.14.01-.046-.076-.105-.044-.208.113-.174.265-.125.36.268.524.331.139.654.168.583.053-.025-.04.027-.138.114-.218.15-.136.168-.133.334.044.096.103.155.22.13.26-.024.04.015.072.088.072.072 0 .132.044.132.098 0 .054.153.301.341.55.188.249.312.452.275.453-.036 0-.133.118-.215.262-.097.17-.194.246-.275.214-.152-.058-.159.026-.028.343.054.131.09.286.081.344-.01.059.021.106.068.106.048 0 .064.057.037.127-.026.07-.008.127.041.127.05 0 .157.142.24.314.153.324.158.349.182.903.013.281.033.313.142.223.08-.068.127-.073.127-.015zm-19.197-.302c.14-.156.139-.162-.044-.156-.148.005-.19-.04-.19-.205 0-.321-.169-.295-.177.027-.004.155-.034.327-.068.382-.034.054-.038.137-.009.184.063.102.278 0 .488-.232zm9.24.078c.023-.039.177-.06.343-.046.165.013.3-.016.3-.064s.086-.08.19-.071c.106.008.238.01.295.006.143-.013.383-.499.31-.626-.033-.057-.03-.076.008-.043.037.033.141.021.232-.028.13-.07.19-.055.278.067.062.085.141.126.176.092.034-.035.115-.02.178.033.064.053.135.077.158.054.078-.079-.06-.314-.214-.363-.084-.026-.252-.14-.373-.253-.122-.112-.221-.185-.221-.16 0 .024-.057-.013-.127-.083-.26-.26-.077-.438.506-.49.312-.028.347-.008.483.266.08.163.13.344.11.402-.02.059.01.107.068.108.075 0 .074.02-.007.07-.088.056-.084.092.02.179.176.145.167.342-.013.342-.13 0-.132.013-.017.129a.71.71 0 0 0 .313.164c.174.033.177.024.059-.157-.07-.105-.103-.215-.075-.243.028-.028.02-.1-.017-.161-.087-.14-.107-1.09-.022-1.037.035.021.13-.176.214-.439.083-.262.195-.494.25-.515.054-.02.081-.103.06-.183-.041-.16.436-.644.558-.568.04.025.113-.004.162-.063.068-.082.041-.112-.113-.125-.112-.01-.225.019-.252.063-.027.044-.105.058-.174.032-.068-.026-.124-.01-.124.038 0 .095-.49.304-.656.28-.058-.01-.106.023-.106.072 0 .049-.111.088-.248.088-.136 0-.307.06-.38.132a.777.777 0 0 1-.323.174c-.33.074-.446.104-.446.118a.6.6 0 0 1-.17.037 3.232 3.232 0 0 0-.296.057c-.103.027-.127-.074-.127-.553 0-.357-.037-.597-.095-.617-.108-.036-.794.574-.794.706 0 .048-.095.138-.211.2-.117.063-.212.142-.212.176 0 .128-.339-.032-.348-.164-.02-.293.026-.48.144-.572.19-.148-.053-.313-.315-.214a.627.627 0 0 1-.403 0c-.112-.042-.217-.062-.234-.045-.05.05.345.733.424.734.04 0 .148.096.24.213.092.117.195.195.23.174.128-.08-.015.453-.165.614-.085.092-.136.186-.113.21.023.022-.015.179-.086.347-.07.168-.103.305-.073.305s-.03.078-.132.173a.63.63 0 0 0-.185.406c0 .129-.046.28-.101.336-.078.078-.079.125-.002.2.076.077.136.067.256-.042.087-.078.178-.121.202-.096.025.024.136-.051.248-.168.11-.117.268-.214.35-.214.081-.001.148-.044.148-.096 0-.058-.081-.073-.212-.04-.118.03-.212.016-.212-.03 0-.095.339-.429.434-.429.034 0 .122-.06.196-.133.084-.084.133-.096.133-.032 0 .055.13.001.29-.12.296-.226.556-.29.556-.139 0 .047-.076.132-.17.19-.092.058-.168.154-.168.212 0 .06-.038.107-.085.107-.047 0-.085.057-.085.127s-.037.127-.083.127c-.045 0-.159.15-.252.333-.094.182-.247.357-.342.387-.094.03-.15.09-.123.133.06.097.52.104.58.009zm-.6-1.44c-.05-.031-.094-.217-.096-.412l-.004-.355.47.036c.259.02.51.012.558-.017.078-.049.44-.065.85-.039.224.015.097.158-.196.222-.14.03-.253.086-.253.123 0 .037-.153.091-.34.121-.185.03-.338.094-.338.142 0 .048-.047.077-.106.066-.058-.012-.184.022-.28.075-.095.053-.214.07-.265.039zm15.003 1.069a.48.48 0 0 1 .094-.247c.08-.101.192-.445.21-.646.01-.115.178-.274.245-.233.036.022.11-.014.166-.08.103-.124.557-.264.744-.229.121.023.13-.03.14-.982.005-.384-.017-.699-.05-.699-.03 0-.069-.085-.084-.19-.018-.127-.095-.2-.23-.22-.196-.027-.201-.014-.148.373.03.22.096.451.147.512.05.06.068.15.038.197-.03.048-.019.154.024.237.094.182.04.361-.109.361-.06 0-.157.058-.216.13a.257.257 0 0 1-.265.078c-.086-.027-.157-.016-.157.024 0 .072-.447.29-.818.399-.154.045-.176.025-.139-.118.025-.095.08-.15.125-.123.093.058.424-.297.365-.392-.022-.035.02-.088.093-.116.205-.078.107-.33-.134-.345a1.857 1.857 0 0 1-.38-.068c-.21-.067-.548.21-.748.613-.175.35-.178.435-.015.372.07-.027.127-.009.127.04 0 .048.079.113.176.143.109.035.157.103.128.18-.027.068-.015.103.025.078.04-.025.171.046.29.157.186.171.214.26.188.595-.02.273 0 .384.068.361.054-.018.1-.09.1-.162zm-19.263-.406c0-.047-.04-.085-.09-.085-.049 0-.066.038-.037.085.029.046.07.084.09.084.02 0 .037-.038.037-.084zm.2-.212c-.027-.07-.064-.127-.082-.127-.018 0-.033.057-.033.127s.037.127.082.127c.045 0 .06-.057.033-.127zm17.026-.036c.027-.044.01-.103-.037-.132-.047-.03-.086.006-.086.078 0 .149.05.17.123.054zm10.178-.062c-.03-.031.078-.147.24-.257.281-.191.296-.226.296-.695 0-.529-.181-.878-.51-.983-.092-.029-.167-.103-.167-.165 0-.094-.175-.223-.34-.25-.025-.004-.156-.11-.292-.236-.272-.252-.435-.237-.294.028.05.093.106.25.125.348.02.098.066.2.104.228.142.1.45.711.41.815-.023.06.018.13.09.158.087.034.118.122.092.259-.022.114-.01.189.029.165.038-.023.027.077-.024.224-.073.21-.068.281.025.34.137.087.298.102.216.02zm-14.068-.262a1.534 1.534 0 0 1-.077-.25.739.739 0 0 0-.144-.254c-.176-.213-.328-.552-.315-.702.032-.355-.025-.492-.227-.543-.116-.03-.212-.09-.212-.136 0-.046-.057-.083-.127-.083a.127.127 0 0 0-.127.127c0 .07-.075.127-.169.127-.093 0-.17.038-.17.085 0 .047-.114.243-.253.436-.14.193-.254.318-.254.279 0-.04-.046-.026-.102.03-.141.14-.322.126-.322-.026 0-.07-.035-.127-.077-.127-.166 0-.346.107-.346.206 0 .095.42.547.451.487.008-.015.129.018.269.074.397.159.889.238.889.143 0-.055.036-.055.106 0 .058.046.22.086.36.09.14.002.349.043.465.09.33.132.45.116.382-.053zm9.857-.31c.08-.097.07-.116-.048-.099-.082.012-.164.066-.182.12-.045.138.11.123.23-.021zm-38.792-.515c.041 0 .142-.067.223-.148.082-.082.18-.149.22-.149.04 0 .12-.143.177-.317.058-.175.122-.268.142-.208.028.082.065.085.152.014.135-.112.292-.04.292.135 0 .068.042.122.094.122.058 0 .074-.074.04-.19-.03-.105-.07-.4-.089-.656-.02-.256-.044-.523-.054-.593-.05-.352.016-.506.242-.562.128-.031.365-.146.527-.255.162-.11.362-.199.445-.199.082 0 .15-.038.15-.085 0-.046.076-.084.169-.084.093 0 .17-.035.17-.077 0-.042.113-.116.253-.165.255-.089.346-.258.148-.276-.296-.026-.54.036-.638.163-.06.078-.155.146-.211.151-.21.02-.484.141-.484.214 0 .04-.095.074-.211.074a.403.403 0 0 0-.317.17.401.401 0 0 1-.329.169c-.123 0-.27.057-.328.126-.057.07-.136.107-.174.083-.038-.023-.095 0-.128.053-.032.053-.006.129.058.17.064.04.09.074.059.075-.032 0-.022.125.023.276.114.392.163.995.08.995-.075 0-.208-.256-.186-.36.007-.035-.018-.063-.056-.063-.038 0-.122-.194-.186-.43-.065-.236-.182-.464-.262-.507-.13-.07-.144-.008-.148.663a35.45 35.45 0 0 1-.011.866c-.004.07.017.23.047.356.042.177.008.272-.153.423-.114.107-.19.248-.167.313.03.088.08.066.194-.084.084-.112.187-.203.227-.203zm45.105-.127c.03-.047.012-.085-.037-.085-.05 0-.09.038-.09.085 0 .046.017.084.038.084.02 0 .06-.038.09-.084zm-20.108-.167c0-.045.054-.061.12-.036.071.027.141-.024.174-.13.031-.096.113-.175.184-.175.07 0 .188-.062.263-.137.125-.125.12-.148-.064-.287-.23-.174-.394-.14-.469.096-.028.09-.149.254-.267.364-.119.11-.19.242-.158.293.071.116.217.124.217.012zm19.77-.257c.029-.046.012-.084-.038-.084-.049 0-.09.038-.09.084 0 .047.018.085.038.085s.061-.038.09-.085zm-7.155-.164a.17.17 0 0 0-.076-.127c-.09-.056-.017-.404.101-.482.104-.069-.009-.262-.115-.197-.043.027-.122.022-.175-.01-.187-.116-.666-.1-.666.022 0 .065.057.139.127.166.07.027.127.084.127.128 0 .163.377.58.524.58.084 0 .153-.036.153-.08zm6.604.046c0-.018-.057-.055-.127-.082-.07-.026-.127-.011-.127.034s.058.082.127.082c.07 0 .127-.015.127-.034zm-2.936-.356c-.032-.085-.078-.1-.132-.047-.097.097-.003.292.107.224.042-.026.053-.105.025-.177zm-30.592-.288a.085.085 0 0 0-.084-.084.085.085 0 0 0-.085.084.085.085 0 0 0 .17 0zm16.087-.116c0-.04.051-.031.114.021.087.072.148.057.256-.062.205-.227.092-.46-.203-.417-.248.036-.283-.073-.097-.297.09-.11.052-.131-.277-.158-.326-.026-.414.003-.596.196-.117.124-.213.279-.213.344 0 .065-.078.203-.173.305l-.174.186.681-.022c.375-.012.682-.055.682-.096zm-6.689-.222c0-.047-.016-.085-.037-.085-.02 0-.06.038-.09.085-.028.046-.012.084.038.084.049 0 .09-.038.09-.084zm18.092-.186c-.027-.067-.047-.047-.05.052-.005.089.015.139.044.11.028-.027.03-.1.007-.161zm-14.959-.362c.256-.017.666-.051.91-.077.274-.03.445-.015.445.037 0 .053.071.047.187-.015.104-.055.373-.094.6-.086.352.013.407-.007.383-.135-.02-.106-.142-.167-.41-.208-.795-.121-.935-.154-1.245-.288a2.904 2.904 0 0 0-.658-.18 1.861 1.861 0 0 1-.481-.118c-.1-.052-.187-.03-.29.073-.082.081-.18.148-.219.148-.038 0-.146.125-.24.278-.092.153-.225.296-.295.317-.411.129-.403.122-.296.252.058.068.138.104.18.078.04-.025.074-.013.074.028 0 .043.19.043.445 0 .244-.041.654-.088.91-.104zm18.203.04c0-.047-.016-.085-.037-.085-.02 0-.06.038-.09.085-.028.046-.012.084.038.084.049 0 .09-.038.09-.084zm-27.686-.349c0-.047-.038-.061-.084-.032-.047.029-.085.09-.085.137 0 .046.038.06.085.032.046-.029.084-.09.084-.137zm16.182-.097c-.083-.083-.093-.074-.047.047.032.084.079.13.105.105.026-.026 0-.095-.058-.152zm14.646-.087c-.109-.11-.219-.025-.139.105.032.05.096.068.143.038.058-.035.057-.083-.004-.143zm-45.439-1.104c-.024-.062-.104-.113-.178-.113-.113 0-.11.018.02.113.193.14.212.14.158 0zm24.94.075c0-.02-.037-.06-.084-.09-.047-.028-.085-.011-.085.038 0 .05.038.09.085.09.047 0 .085-.017.085-.038zm-20.48-.221c-.11-.093-.225-.146-.253-.117-.06.06.235.292.366.288.05-.002-.001-.078-.112-.171zm19.75-.038c.029-.076 0-.127-.074-.127-.073 0-.102.05-.073.127.027.07.06.127.073.127.014 0 .046-.057.073-.127zm-32.088 9.09c-.146-.04-.31-.127-.366-.194-.056-.068-.156-.102-.222-.076-.067.025-.121.007-.121-.042 0-.076-.265-.21-.44-.222-.033-.002-.107-.052-.166-.11a.403.403 0 0 0-.245-.106c-.076 0-.211-.08-.3-.178a1.625 1.625 0 0 0-.383-.293c-.23-.118-.252-.34-.075-.757.092-.217.201-.658.183-.74-.038-.174.159-.027.367.275.13.186.268.338.308.338.04 0 .073.058.073.127 0 .07.053.127.117.127s.177.124.252.276c.075.15.136.243.137.205.003-.104.256.17.256.277 0 .051.096.136.212.19.117.052.217.128.222.167l.022.153c.005.045.14.19.3.324.322.269.272.368-.131.259zm-12.758-.85c-.304-.59-.309-.613-.161-.783.188-.217.457-.8.407-.882-.02-.033.034-.154.122-.27.158-.207.16-.196.13 1.09-.017.715-.065 1.334-.108 1.377-.047.047-.2-.16-.39-.531zm33.225.27c-.055-.187-.138-.34-.182-.34-.045 0-.082-.053-.082-.12 0-.065-.042-.133-.093-.15-.063-.021-.045-.142.055-.367.082-.185.141-.37.132-.413-.01-.042.029-.106.086-.141.057-.035.117-.15.133-.255.033-.215.176-.416.296-.416.044 0 .06.067.034.148a.373.373 0 0 0 .03.27.278.278 0 0 1-.002.272c-.044.082-.094.504-.112.936-.038.947-.033.914-.122.914-.04 0-.117-.152-.173-.339zm15.088-.542c-.376-.13-.387-.15-.41-.762-.016-.429.004-.537.093-.503.063.024.14.124.171.223.031.098.11.23.173.295.064.064.094.154.066.2-.029.046.012.154.09.24.08.087.13.213.115.28-.023.097-.08.102-.298.027zm-35.457-1.263a1.62 1.62 0 0 1-.327-.296c-.088-.107-.182-.174-.208-.148-.056.056-.357-.202-.357-.305 0-.04.054-.071.12-.071.077 0 .103-.06.074-.17-.024-.093-.08-.17-.124-.17s-.057-.036-.03-.081c.029-.045-.026-.13-.121-.19-.095-.059-.173-.147-.173-.195 0-.049-.086-.163-.19-.255l-.19-.167.232-.027c.128-.015.233-.066.233-.115 0-.048.054-.067.12-.042.164.063.268-.089.338-.493.032-.187.073-.396.09-.466s.034-.202.038-.293c.006-.156.016-.157.147-.026.117.117.122.164.032.272-.08.098-.084.16-.014.245.052.063.072.136.045.162-.026.027.001.138.062.247.126.228.133.252.147.536.012.24.18.294.18.057 0-.085.1-.247.223-.36a2.66 2.66 0 0 0 .38-.46l.158-.253-.037.445c-.02.244-.066.491-.101.548-.082.133-.082.42 0 .554.037.06.022.104-.034.104-.055 0-.077.056-.051.125a.16.16 0 0 1-.067.19c-.069.04-.126.253-.142.532-.025.437-.111.683-.233.672a.922.922 0 0 1-.22-.106zm-.3-1.503c0-.044-.037-.08-.084-.08-.046 0-.085.06-.085.133 0 .072.039.108.085.08.047-.03.085-.089.085-.133zm-1.947.937a.085.085 0 0 1 .17 0 .085.085 0 0 1-.085.084.085.085 0 0 1-.085-.084zm42.605-3.875c-.057-.02-.081-.07-.055-.113.027-.042-.03-.188-.126-.323a1.019 1.019 0 0 1-.175-.494.599.599 0 0 0-.17-.402c-.092-.085-.169-.224-.169-.31a.536.536 0 0 0-.148-.308c-.146-.15-.187-.282-.217-.695-.01-.14.024-.203.1-.187.187.04 1.01-.227 1.056-.342.034-.084.044-.084.05 0 .003.058.063.106.133.106.072 0 .132.082.138.19l.033.572c.012.21.025.686.028 1.058l.008.943c.002.21-.038.273-.19.302a.738.738 0 0 1-.296.002zm-19.546-1.505c-.028-.072-.029-.152-.003-.178.074-.074.228.051.228.186 0 .163-.162.157-.225-.009zm7.224-.942a.234.234 0 0 1-.057-.144c0-.053.04-.048.1.013.056.055.081.12.057.144-.024.024-.07.018-.1-.013zm17.639-.108c0-.044.044-.107.097-.14.058-.036.075-.024.042.03-.03.05-.008.11.05.133.065.026.048.046-.041.05-.082.004-.148-.03-.148-.073z" style="fill:#000;stroke-width:.264583" transform="translate(-69.223 -142.505)"/>
</svg>
