<?xml version="1.0" encoding="UTF-8" standalone="no"?>
<svg
   id="text"
   width="1094.483"
   height="90.41"
   viewBox="0 0 289.582 23.921"
   version="1.1"
   sodipodi:docname="hawkchild_diy.svg"
   inkscape:version="1.3 (0e150ed, 2023-07-21)"
   xmlns:inkscape="http://www.inkscape.org/namespaces/inkscape"
   xmlns:sodipodi="http://sodipodi.sourceforge.net/DTD/sodipodi-0.dtd"
   xmlns="http://www.w3.org/2000/svg"
   xmlns:svg="http://www.w3.org/2000/svg">
  <defs
     id="defs1" />
  <sodipodi:namedview
     id="namedview1"
     pagecolor="#ffffff"
     bordercolor="#000000"
     borderopacity="0.25"
     inkscape:showpageshadow="2"
     inkscape:pageopacity="0.0"
     inkscape:pagecheckerboard="0"
     inkscape:deskcolor="#d1d1d1"
     inkscape:zoom="0.68902886"
     inkscape:cx="506.50999"
     inkscape:cy="42.813882"
     inkscape:window-width="1792"
     inkscape:window-height="1096"
     inkscape:window-x="0"
     inkscape:window-y="876"
     inkscape:window-maximized="0"
     inkscape:current-layer="text" />
  <path
     d="M18.854 111.807v-10.2h-8.93v10.2H5.196V88.956h4.728v8.713h8.93v-8.713h4.744v22.851zm21.352-4.697h-8.418l-1.58 4.697h-4.993l8.155-22.851h5.395l8.092 22.851H41.68zm-1.333-3.938-2.852-8.992-2.946 8.992zm30.05-14.216h4.852l-6.433 22.851h-4.558l-2.76-13.363-.806-4.419-.806 4.419-2.76 13.363H51.22l-6.48-22.851h5.069l3.023 13.084.651 3.644.667-3.566 2.573-13.162h5.039l2.713 13.084.697 3.644.698-3.504zm26.655 22.851h-6.14l-7.053-9.984-2.28 2.341v7.643h-4.697V88.956h4.698v9.41l8.82-9.41h6.17l-9.363 9.41zm17.476-1.705q-2.558 2.34-6.542 2.34-4.93 0-7.751-3.162-2.822-3.178-2.822-8.712 0-5.985 3.21-9.225 2.79-2.821 7.1-2.821 5.767 0 8.433 3.782 1.473 2.124 1.581 4.264h-4.774q-.466-1.644-1.194-2.48-1.302-1.489-3.86-1.489-2.605 0-4.109 2.108-1.503 2.093-1.503 5.938 0 3.845 1.58 5.767 1.598 1.907 4.047 1.907 2.512 0 3.83-1.643.728-.884 1.209-2.651h4.728q-.62 3.736-3.163 6.077zm19.105 1.705v-10.2h-8.93v10.2h-4.728V88.956h4.728v8.713h8.93v-8.713h4.744v22.851zm7.601-22.851h4.744v22.851h-4.744zm7.866 0h4.774v18.743h11.318v4.108h-16.093Zm27.91 22.851h-9.845V88.956h9.845q2.124.03 3.534.496 2.403.79 3.892 2.899 1.193 1.705 1.628 3.69.434 1.984.434 3.782 0 4.558-1.83 7.72-2.48 4.264-7.658 4.264zm3.55-17.022q-1.1-1.86-4.356-1.86h-4.403v14.913h4.403q3.38 0 4.713-3.333.728-1.829.728-4.356 0-3.488-1.085-5.364zm77.994 17.022h-9.844V88.956h9.844q2.124.03 3.535.496 2.403.79 3.891 2.899 1.194 1.705 1.628 3.69.434 1.984.434 3.782 0 4.558-1.83 7.72-2.48 4.264-7.658 4.264zm3.55-17.022q-1.1-1.86-4.356-1.86h-4.403v14.913h4.403q3.38 0 4.713-3.333.728-1.829.728-4.356 0-3.488-1.085-5.364zm7.834-5.83h4.744v22.852h-4.744zm26.314 0-7.643 14.264v8.588h-4.775v-8.588l-7.907-14.263h5.628l4.744 9.953 4.542-9.953z"
     aria-label="HAWKCHILD DIY"
     style="font-weight:700;font-size:31.75px;line-height:2;font-family:Helvetica;-inkscape-font-specification:&quot;Helvetica Bold&quot;;letter-spacing:-1.32821px;word-spacing:0;fill-opacity:.998363;stroke-width:.8"
     transform="translate(-5.196 -88.522)"
     id="path1" />
</svg>
