<svg width="680" height="190.186" viewBox="0 0 179.916 50.32" xmlns="http://www.w3.org/2000/svg">
    <path d="M13.658 23.297v-10.2h-8.93v10.2H0V.447h4.728v8.712h8.93V.446h4.744v22.85ZM35.01 18.6h-8.418l-1.58 4.697h-4.993L28.174.447h5.395l8.092 22.85h-5.177zm-1.333-3.938L30.825 5.67l-2.946 8.992zM62.957.435h4.853l-6.433 22.85h-4.558l-2.76-13.362-.806-4.42-.806 4.42-2.76 13.363h-4.432L38.775.435h5.069l3.023 13.084.65 3.644.668-3.566L50.758.435h5.039l2.713 13.084.697 3.644.698-3.504zm26.207 22.85h-6.14l-7.053-9.983-2.28 2.34v7.644h-4.697V.435h4.698v9.41l8.82-9.41h6.17l-9.363 9.41Zm18.703-1.705c-1.705 1.56-3.886 2.34-6.542 2.34-3.287 0-5.87-1.054-7.75-3.162-1.882-2.12-2.823-5.023-2.823-8.712 0-3.99 1.07-7.065 3.21-9.225C95.822.94 98.189 0 101.062 0c3.845 0 6.656 1.26 8.433 3.782.982 1.416 1.51 2.837 1.58 4.264h-4.773c-.31-1.096-.71-1.923-1.194-2.48-.868-.993-2.155-1.49-3.86-1.49-1.737 0-3.106.704-4.11 2.109-1.001 1.395-1.502 3.375-1.502 5.938 0 2.563.527 4.486 1.58 5.767 1.065 1.27 2.414 1.907 4.047 1.907 1.675 0 2.95-.548 3.83-1.643.485-.59.888-1.473 1.21-2.651h4.727c-.413 2.49-1.468 4.516-3.163 6.077zm19.184 1.705v-10.2h-8.93v10.2h-4.728V.434h4.728v8.713h8.93V.434h4.744v22.85zM134.652.434h4.744v22.85h-4.744zm7.866 0h4.774v18.743h11.318v4.108h-16.093zm27.91 22.85h-9.845V.435h9.845c1.416.02 2.594.185 3.534.496 1.602.527 2.9 1.493 3.892 2.899a10.185 10.185 0 0 1 1.628 3.69c.28 1.241.426 2.51.434 3.782 0 3.039-.61 5.612-1.83 7.72-1.653 2.843-4.206 4.264-7.658 4.264zm3.55-17.021c-.733-1.24-2.185-1.86-4.356-1.86h-4.403v14.913h4.403c2.253 0 3.824-1.111 4.713-3.333.485-1.22.728-2.671.728-4.356 0-2.325-.362-4.113-1.085-5.364zM141.64 50.32h-9.844V27.47h9.844c1.416.02 2.594.185 3.535.495 1.602.527 2.9 1.493 3.89 2.9a10.162 10.162 0 0 1 1.63 3.69c.29 1.322.433 2.583.433 3.78 0 3.04-.61 5.613-1.83 7.72-1.653 2.844-4.206 4.265-7.658 4.265zm3.55-17.022c-.733-1.24-2.185-1.86-4.356-1.86h-4.403V46.35h4.403c2.253 0 3.824-1.11 4.713-3.333.485-1.22.728-2.671.728-4.356 0-2.325-.362-4.113-1.085-5.364zm7.834-5.83h4.744V50.32h-4.744zm26.893 0-7.643 14.264v8.588h-4.775v-8.588l-7.907-14.263h5.628l4.744 9.953 4.542-9.953z" fill="#fff" aria-label="HAWKCHILD DIY" style="font-weight:700;font-size:31.75px;line-height:2;font-family:Helvetica;-inkscape-font-specification:'Helvetica Bold';letter-spacing:-1.32821px;word-spacing:0;fill:#fff;fill-opacity:.99836302;stroke-width:.8"/>
</svg>
