<svg width="679.665" height="190.187" viewBox="0 0 179.828 50.32" xmlns="http://www.w3.org/2000/svg">
    <path d="M13.658 23.285v-10.2h-8.93v10.2H0V.434h4.728v8.713h8.93V.434h4.744v22.851Zm21.352-4.697h-8.418l-1.58 4.697h-4.993L28.174.434h5.395l8.092 22.851h-5.177Zm-1.333-3.938-2.852-8.992-2.946 8.992ZM63.727.434h4.852l-6.433 22.851h-4.558l-2.76-13.363-.806-4.419-.806 4.419-2.76 13.363h-4.432L39.544.434h5.069l3.023 13.084.651 3.644.667-3.566L51.527.434h5.039l2.713 13.084.697 3.644.698-3.504zm26.655 22.851h-6.14l-7.053-9.984-2.28 2.341v7.643h-4.697V.434h4.698v9.41l8.82-9.41h6.17l-9.363 9.41zm17.476-1.705c-1.705 1.56-3.886 2.34-6.542 2.34-3.287 0-5.87-1.054-7.751-3.162-1.881-2.119-2.822-5.023-2.822-8.712 0-3.99 1.07-7.065 3.21-9.225C95.813.941 98.18 0 101.053 0c3.845 0 6.656 1.26 8.433 3.782.982 1.416 1.509 2.837 1.581 4.264h-4.774c-.31-1.096-.709-1.923-1.194-2.48-.868-.993-2.155-1.489-3.86-1.489-1.737 0-3.106.703-4.109 2.108-1.002 1.395-1.503 3.375-1.503 5.938 0 2.563.527 4.486 1.58 5.767 1.065 1.271 2.414 1.907 4.047 1.907 1.675 0 2.951-.548 3.83-1.643.485-.59.888-1.473 1.209-2.651h4.728c-.413 2.49-1.468 4.516-3.163 6.077zm19.105 1.705v-10.2h-8.93v10.2h-4.728V.434h4.728v8.713h8.93V.434h4.744v22.851zM134.564.434h4.744v22.851h-4.744zm7.866 0h4.774v18.743h11.318v4.108h-16.093zm27.91 22.851h-9.845V.434h9.845c1.416.02 2.594.185 3.534.496 1.602.527 2.9 1.493 3.892 2.899a10.185 10.185 0 0 1 1.628 3.69 17.71 17.71 0 0 1 .434 3.782c0 3.039-.61 5.612-1.83 7.72-1.653 2.843-4.206 4.264-7.658 4.264zm3.55-17.022c-.733-1.24-2.185-1.86-4.356-1.86h-4.403v14.913h4.403c2.253 0 3.824-1.111 4.713-3.333.485-1.22.728-2.671.728-4.356 0-2.325-.362-4.113-1.085-5.364zM141.551 50.32h-9.844V27.47h9.844c1.416.02 2.594.185 3.535.495 1.602.527 2.899 1.493 3.89 2.9a10.162 10.162 0 0 1 1.629 3.69c.29 1.322.434 2.583.434 3.781 0 3.039-.61 5.612-1.83 7.72-1.653 2.843-4.206 4.264-7.658 4.264zm3.55-17.022c-.733-1.24-2.185-1.86-4.356-1.86h-4.403v14.913h4.403c2.253 0 3.824-1.11 4.713-3.333.485-1.219.728-2.671.728-4.356 0-2.325-.362-4.113-1.085-5.364zm7.834-5.83h4.744V50.32h-4.744zm26.893 0-7.643 14.264v8.588h-4.775v-8.588l-7.907-14.263h5.628l4.744 9.953 4.542-9.953z" aria-label="HAWKCHILD DIY" style="font-weight:700;font-size:31.75px;line-height:2;font-family:Helvetica;-inkscape-font-specification:'Helvetica Bold';letter-spacing:-1.32821px;word-spacing:0;fill-opacity:.998363;stroke-width:.8"/>
</svg>
