<svg width="660.211" height="336.764" viewBox="0 0 174.681 89.102" xmlns="http://www.w3.org/2000/svg">
    <g style="font-weight:700;font-size:31.75px;line-height:2;font-family:Futura;-inkscape-font-specification:'Futura Bold';letter-spacing:-1.32821px;word-spacing:0;fill-opacity:.998363;stroke-width:.799999" aria-label="HAWKCHILD DIY">
        <path style="font-weight:400;font-family:Helvetica;-inkscape-font-specification:Helvetica;stroke-width:.8" d="M14.258 76.183h3.116v9.41h11.844v-9.41h3.116v22.774h-3.116v-10.65H17.374v10.65h-3.116ZM47.47 89.624l-3.457-10.061-3.674 10.061Zm-5.07-13.44h3.489l8.263 22.773h-3.38l-2.31-6.821h-9.007l-2.465 6.821h-3.162zm13.57 0 4.295 18.525 5.147-18.526h3.349l5.147 18.526 4.294-18.526h3.38l-5.984 22.774h-3.24l-5.256-18.882-5.287 18.882h-3.24l-5.953-22.774Zm27.136 0h3.008v11.1l11.1-11.1h4.263l-9.472 9.177 9.736 13.596h-4.016l-7.968-11.426-3.643 3.489v7.937h-3.008zm29.445-.62q4.325 0 6.713 2.278 2.387 2.279 2.65 5.178h-3.007q-.511-2.201-2.046-3.488-1.52-1.287-4.279-1.287-3.364 0-5.441 2.372-2.062 2.357-2.062 7.24 0 4 1.86 6.496 1.876 2.48 5.581 2.48 3.41 0 5.194-2.62.945-1.38 1.41-3.627h3.008q-.403 3.596-2.667 6.03-2.713 2.93-7.317 2.93-3.969 0-6.666-2.403-3.55-3.178-3.55-9.813 0-5.039 2.666-8.263 2.884-3.504 7.953-3.504zm-.62 0zm12.702.62h3.116v9.41h11.844v-9.41h3.116v22.773h-3.116v-10.65H127.75v10.65h-3.116zm22.22 0h3.117v22.773h-3.116zm6.796 0h3.085v20.06h11.534v2.713H153.65zm25.073 20.138q1.566 0 2.574-.326 1.798-.605 2.945-2.325.915-1.38 1.318-3.535.233-1.287.233-2.388 0-4.232-1.69-6.573-1.674-2.34-5.41-2.34h-5.473v17.487zm-8.604-20.139h9.224q4.698 0 7.287 3.333 2.31 3.008 2.31 7.705 0 3.628-1.365 6.558-2.402 5.178-8.263 5.178h-9.193zM151.314 121.916c1.043 0 1.901-.108 2.573-.325 1.199-.404 2.18-1.179 2.946-2.326.61-.92 1.049-2.098 1.317-3.535.155-.857.233-1.653.233-2.387 0-2.822-.563-5.013-1.69-6.573-1.116-1.56-2.92-2.341-5.41-2.341h-5.473v17.487zm-8.605-20.138h9.225c3.131 0 5.56 1.11 7.286 3.333 1.54 2.005 2.31 4.573 2.31 7.705 0 2.418-.455 4.604-1.364 6.558-1.602 3.452-4.357 5.178-8.263 5.178h-9.194zm20.9 0h3.117v22.774h-3.116zm5.036 0h3.597l6.542 10.945 6.543-10.945h3.612l-8.604 13.596v9.178h-3.085v-9.178z" transform="translate(-14.258 -75.563)"/>
    </g>
</svg>
