<svg width="679.996" height="86.711" viewBox="0 0 179.916 22.942" xmlns="http://www.w3.org/2000/svg"><defs><path id="a" d="M-23.288-19.611h860.425v127.47H-23.288z"/></defs><path d="M13.658 22.863v-10.2h-8.93v10.2H0V.013h4.728v8.712h8.93V.012h4.744v22.85zm21.352-4.697h-8.418l-1.58 4.697H20.02L28.174.013h5.395l8.092 22.85h-5.177zm-1.333-3.938-2.852-8.992-2.946 8.992zM62.957.001h4.853l-6.433 22.85H56.82L54.06 9.489l-.806-4.42-.806 4.42-2.76 13.363h-4.432L38.775.001h5.07l3.022 13.084.65 3.644.668-3.566L50.758.001h5.04l2.712 13.084.697 3.644.698-3.504zm26.207 22.85h-6.14l-7.053-9.983-2.28 2.34v7.644h-4.697V.001h4.698v9.41l8.82-9.41h6.17l-9.363 9.41zm37.887 0v-10.2h-8.93v10.2h-4.728V0h4.728v8.713h8.93V0h4.744v22.85zM134.651 0h4.745v22.85h-4.744zm7.867 0h4.774v18.743h11.318v4.108h-16.093zm27.91 22.85h-9.845V.001h9.845c1.416.02 2.594.185 3.534.496 1.602.527 2.9 1.493 3.892 2.899a10.185 10.185 0 0 1 1.628 3.69c.28 1.241.426 2.51.434 3.782 0 3.039-.61 5.612-1.83 7.72-1.653 2.843-4.206 4.264-7.658 4.264zm3.55-17.021c-.733-1.24-2.185-1.86-4.356-1.86h-4.403v14.913h4.403c2.253 0 3.824-1.111 4.713-3.333.485-1.22.728-2.671.728-4.356 0-2.325-.362-4.113-1.085-5.364z" style="font-weight:700;font-size:31.75px;line-height:2;font-family:Helvetica;-inkscape-font-specification:'Helvetica Bold';letter-spacing:-1.32821px;word-spacing:0;fill:#000;fill-opacity:.998363;stroke-width:.8"/><text xml:space="preserve" style="font-size:31.0937px;line-height:2;font-family:Helvetica;-inkscape-font-specification:Helvetica;letter-spacing:-1.30075px;word-spacing:0;fill:#000;fill-opacity:1;stroke-width:.78346" x="87.321" y="22.804" transform="matrix(1.0211 0 0 .97933 0 0)"><tspan style="font-style:normal;font-variant:normal;font-weight:700;font-stretch:normal;font-family:Helvetica;-inkscape-font-specification:'Helvetica Bold';fill:#000;fill-opacity:1;stroke-width:.783461" x="87.321" y="22.804">C</tspan></text></svg>