<svg width="336.997" height="86.406" viewBox="0 0 89.164 22.862" xmlns="http://www.w3.org/2000/svg"><path d="M74.248 159.388v-10.2h-8.93v10.2H60.59v-22.85h4.728v8.712h8.93v-8.713h4.744v22.85zM95.6 154.69h-8.418l-1.58 4.697H80.61l8.154-22.85h5.395l8.091 22.85h-5.176zm-1.333-3.938-2.852-8.992-2.946 8.992zm29.28-14.227h4.852l-6.433 22.85h-4.557l-2.76-13.362-.806-4.42-.806 4.42-2.76 13.363h-4.432l-6.48-22.85h5.07l3.021 13.083.65 3.644.668-3.566 2.573-13.162h5.04l2.712 13.084.697 3.644.698-3.504zm26.206 22.85h-6.14l-7.053-9.983-2.28 2.34v7.644h-4.697v-22.85h4.698v9.41l8.82-9.41h6.17l-9.363 9.41z" style="font-weight:700;font-size:31.75px;line-height:2;font-family:Helvetica;-inkscape-font-specification:'Helvetica Bold';letter-spacing:-1.32821px;word-spacing:0;fill:#000;fill-opacity:.998363;stroke-width:.799998" transform="translate(-60.59 -136.526)"/></svg>