<svg width="337.607" height="86.71" viewBox="0 0 89.325 22.942" xmlns="http://www.w3.org/2000/svg"><path d="M96.888 159.376v-10.2h-8.93v10.2H83.23v-22.85h4.728v8.712h8.93v-8.713h4.744v22.85zm7.6-22.85h4.745v22.849h-4.744zm7.867 0h4.774v18.742h11.318v4.108h-16.093zm27.91 22.849h-9.845v-22.849h9.845c1.416.02 2.594.185 3.534.496 1.602.527 2.9 1.493 3.892 2.9a10.185 10.185 0 0 1 1.628 3.69c.28 1.24.426 2.51.434 3.781 0 3.04-.61 5.612-1.83 7.72-1.653 2.843-4.206 4.264-7.658 4.264zm3.55-17.02c-.733-1.24-2.185-1.86-4.356-1.86h-4.403v14.912h4.403c2.253 0 3.824-1.111 4.713-3.333.485-1.22.728-2.67.728-4.356 0-2.325-.362-4.113-1.085-5.364zm-66.272 14.867c-1.705 1.497-3.886 2.245-6.542 2.245-3.287 0-5.87-1.011-7.752-3.033-1.88-2.032-2.821-4.817-2.821-8.356 0-3.826 1.07-6.775 3.209-8.847 1.86-1.804 4.227-2.706 7.1-2.706 3.845 0 6.656 1.21 8.434 3.628.982 1.358 1.509 2.72 1.581 4.089h-4.775c-.31-1.05-.708-1.844-1.193-2.38-.869-.95-2.155-1.426-3.86-1.426-1.737 0-3.106.674-4.109 2.022-1.002 1.338-1.504 3.236-1.504 5.694 0 2.458.527 4.302 1.582 5.531 1.064 1.22 2.413 1.83 4.046 1.83 1.674 0 2.95-.526 3.83-1.577.485-.565.888-1.412 1.208-2.542h4.729c-.414 2.388-1.468 4.331-3.163 5.828z" style="font-weight:700;font-size:31.75px;line-height:2;font-family:Helvetica;-inkscape-font-specification:'Helvetica Bold';letter-spacing:-1.32821px;word-spacing:0;fill:#000;fill-opacity:.998363;stroke-width:.799998" transform="translate(-60.428 -136.525)"/></svg>