<svg xmlns="http://www.w3.org/2000/svg" width="337.61" height="86.71" viewBox="0 0 89.33 22.94">
  <path d="M96.89 159.38v-10.2h-8.93v10.2h-4.73v-22.85h4.73v8.7h8.93v-8.7h4.74v22.85zm7.6-22.85h4.74v22.85h-4.74zm7.87 0h4.77v18.74h11.32v4.1h-16.1zm27.9 22.85h-9.84v-22.85h9.85c1.41.02 2.59.18 3.53.5 1.6.52 2.9 1.49 3.9 2.9a10.19 10.19 0 0 1 1.62 3.68c.28 1.24.42 2.51.43 3.78 0 3.04-.6 5.62-1.83 7.72-1.65 2.85-4.2 4.27-7.66 4.27zm3.56-17.02c-.74-1.25-2.19-1.87-4.36-1.87h-4.4v14.92h4.4c2.25 0 3.82-1.11 4.71-3.34.49-1.22.73-2.67.73-4.35 0-2.33-.36-4.12-1.08-5.37zm-66.28 14.86c-1.7 1.5-3.88 2.25-6.54 2.25-3.29 0-5.87-1.01-7.75-3.04-1.88-2.03-2.82-4.81-2.82-8.35 0-3.83 1.07-6.78 3.2-8.85a9.78 9.78 0 0 1 7.1-2.7c3.85 0 6.66 1.2 8.44 3.62a7.65 7.65 0 0 1 1.58 4.1h-4.77a6.11 6.11 0 0 0-1.2-2.39c-.86-.95-2.15-1.42-3.86-1.42-1.73 0-3.1.67-4.1 2.02-1 1.34-1.5 3.23-1.5 5.7 0 2.45.52 4.3 1.57 5.52a5.14 5.14 0 0 0 4.05 1.83c1.67 0 2.95-.52 3.83-1.57.48-.57.89-1.42 1.2-2.55h4.74a9.74 9.74 0 0 1-3.17 5.83z" font-family="Helvetica" font-size="31.75" font-weight="700" letter-spacing="-1.33" style="line-height:2;-inkscape-font-specification:'Helvetica Bold'" transform="translate(-60.43 -136.53)" word-spacing="0"/>
</svg>
