<svg xmlns="http://www.w3.org/2000/svg" width="337" height="86.41" viewBox="0 0 89.16 22.86">
  <path d="M74.25 159.39v-10.2h-8.93v10.2h-4.73v-22.85h4.73v8.71h8.93v-8.71h4.74v22.85zm21.35-4.7h-8.42l-1.58 4.7h-4.99l8.15-22.85h5.4l8.09 22.85h-5.18zm-1.33-3.94-2.85-8.99-2.95 9zm29.28-14.22h4.85l-6.43 22.85h-4.56L114.65 146l-.8-4.42-.81 4.42-2.76 13.37h-4.44l-6.48-22.85h5.07l3.03 13.08.65 3.64.66-3.56 2.58-13.16h5.04l2.7 13.08.7 3.64.7-3.5zm26.2 22.85h-6.14l-7.05-9.99-2.28 2.34v7.65h-4.7v-22.85h4.7v9.4l8.82-9.4h6.17l-9.36 9.4z" font-family="Helvetica" font-size="31.75" font-weight="700" letter-spacing="-1.33" style="line-height:2;-inkscape-font-specification:'Helvetica Bold'" transform="translate(-60.59 -136.53)" word-spacing="0"/>
</svg>
