<svg width="181.874" height="86.37" viewBox="0 0 48.121 22.852" xmlns="http://www.w3.org/2000/svg"><path d="M111.742 128.372h-9.844v-22.85h9.844c1.416.02 2.594.185 3.535.495 1.602.527 2.9 1.493 3.89 2.9a10.162 10.162 0 0 1 1.63 3.69c.29 1.322.433 2.583.433 3.78 0 3.04-.61 5.613-1.83 7.72-1.653 2.844-4.206 4.265-7.658 4.265zm3.55-17.022c-.733-1.24-2.185-1.86-4.356-1.86h-4.403v14.912h4.403c2.253 0 3.824-1.11 4.713-3.333.485-1.22.728-2.67.728-4.356 0-2.325-.362-4.113-1.085-5.364zm7.834-5.83h4.744v22.852h-4.744zm26.893 0-7.643 14.264v8.588h-4.775v-8.588l-7.907-14.263h5.628l4.744 9.953 4.542-9.953z" style="font-weight:700;font-size:31.75px;line-height:2;font-family:Helvetica;-inkscape-font-specification:'Helvetica Bold';letter-spacing:-1.32821px;word-spacing:0;fill:#000;fill-opacity:.998363;stroke-width:.8" transform="translate(-101.898 -105.52)"/></svg>