<svg xmlns="http://www.w3.org/2000/svg" viewBox="0 0 48.12 22.85">
  <path d="M111.74 128.37h-9.84v-22.85h9.84a12 12 0 0 1 3.54.5c1.6.52 2.9 1.49 3.89 2.9a10.16 10.16 0 0 1 1.63 3.69c.29 1.32.43 2.58.43 3.78 0 3.04-.61 5.61-1.83 7.72-1.65 2.84-4.2 4.26-7.66 4.26zm3.55-17.02c-.73-1.24-2.18-1.86-4.35-1.86h-4.4v14.91h4.4c2.25 0 3.82-1.1 4.7-3.33.5-1.22.74-2.67.74-4.36 0-2.32-.37-4.11-1.09-5.36zm7.84-5.83h4.74v22.85h-4.74zm26.89 0-7.64 14.26v8.6h-4.78v-8.6l-7.9-14.26h5.62l4.75 9.95 4.54-9.95z" font-family="Helvetica" font-size="31.75" font-weight="700" letter-spacing="-1.33" style="line-height:2;-inkscape-font-specification:'Helvetica Bold'" transform="translate(-101.9 -105.52)" word-spacing="0"/>
</svg>
